<svg width="24" height="24" viewBox="0 0 24 24" fill="none" xmlns="http://www.w3.org/2000/svg">
<path d="M11.875 2C12.22 2 12.5 2.28 12.5 2.625V3H19.375C20.825 3 22 4.175 22 5.625V14.5C22 13.9229 21.8573 13.3548 21.5846 12.8462C21.3119 12.3376 20.9177 11.9043 20.4371 11.5849C19.9564 11.2655 19.4042 11.0699 18.8297 11.0156C18.2552 10.9612 17.6762 11.0497 17.1441 11.2733C16.6121 11.4969 16.1436 11.8485 15.7804 12.2969C15.4171 12.7454 15.1704 13.2766 15.0621 13.8435C14.9539 14.4103 14.9875 14.9951 15.1599 15.5459C15.3324 16.0966 15.6383 16.5961 16.0505 17H15.5C15.0134 16.9998 14.5373 17.1417 14.13 17.4081C13.7228 17.6745 13.4022 18.054 13.2075 18.5H9.625C9.61233 18.517 9.59881 18.5334 9.5845 18.549L6.5845 21.799C6.52882 21.8593 6.4618 21.9081 6.38726 21.9426C6.31273 21.977 6.23214 21.9964 6.1501 21.9997C6.06806 22.003 5.98618 21.9901 5.90912 21.9618C5.83206 21.9334 5.76134 21.8902 5.701 21.8345C5.64066 21.7788 5.59187 21.7118 5.55743 21.6373C5.52299 21.5627 5.50357 21.4821 5.50027 21.4001C5.49697 21.3181 5.50987 21.2362 5.53822 21.1591C5.56657 21.0821 5.60982 21.0113 5.6655 20.951L7.9285 18.5H4.625C3.92881 18.5 3.26113 18.2234 2.76884 17.7312C2.27656 17.2389 2 16.5712 2 15.875V5.625C2 4.175 3.175 3 4.625 3H11.25V2.625C11.25 2.28 11.53 2 11.875 2ZM6.125 6.75C5.95924 6.75 5.80027 6.81585 5.68306 6.93306C5.56585 7.05027 5.5 7.20924 5.5 7.375C5.5 7.54076 5.56585 7.69973 5.68306 7.81694C5.80027 7.93415 5.95924 8 6.125 8H10.875C11.0408 8 11.1997 7.93415 11.3169 7.81694C11.4342 7.69973 11.5 7.54076 11.5 7.375C11.5 7.20924 11.4342 7.05027 11.3169 6.93306C11.1997 6.81585 11.0408 6.75 10.875 6.75H6.125ZM5.5 10.875C5.5 11.22 5.78 11.5 6.125 11.5H13.375C13.5408 11.5 13.6997 11.4342 13.8169 11.3169C13.9342 11.1997 14 11.0408 14 10.875C14 10.7092 13.9342 10.5503 13.8169 10.4331C13.6997 10.3158 13.5408 10.25 13.375 10.25H6.125C5.78 10.25 5.5 10.53 5.5 10.875ZM5.5 14.375C5.5 14.72 5.78 15 6.125 15H11.875C12.0408 15 12.1997 14.9342 12.3169 14.8169C12.4342 14.6997 12.5 14.5408 12.5 14.375C12.5 14.2092 12.4342 14.0503 12.3169 13.9331C12.1997 13.8158 12.0408 13.75 11.875 13.75H6.125C5.78 13.75 5.5 14.03 5.5 14.375ZM21 14.5C21 15.163 20.7366 15.7989 20.2678 16.2678C19.7989 16.7366 19.163 17 18.5 17C17.837 17 17.2011 16.7366 16.7322 16.2678C16.2634 15.7989 16 15.163 16 14.5C16 13.837 16.2634 13.2011 16.7322 12.7322C17.2011 12.2634 17.837 12 18.5 12C19.163 12 19.7989 12.2634 20.2678 12.7322C20.7366 13.2011 21 13.837 21 14.5ZM23 19.75C23 21.5 21.425 23 18.5 23C15.575 23 14 21.5 14 19.75V19.499C14 19.3021 14.0388 19.1071 14.1142 18.9251C14.1896 18.7432 14.3001 18.5779 14.4394 18.4387C14.5787 18.2995 14.7441 18.1891 14.9261 18.1138C15.108 18.0385 15.3031 17.9999 15.5 18H21.5C22.3285 18 23 18.67 23 19.499V19.75Z" fill="url(#paint0_linear_313_230)"/>
<defs>
<linearGradient id="paint0_linear_313_230" x1="12.5" y1="2" x2="12.5" y2="23" gradientUnits="userSpaceOnUse">
<stop stop-color="#e80979"/>
<stop offset="1" stop-color="#f8ce16"/>
</linearGradient>
</defs>
</svg>
