<svg width="24" height="24" viewBox="0 0 24 24" fill="none" xmlns="http://www.w3.org/2000/svg">
<path d="M19 6C20.6569 6 22 4.65685 22 3C22 1.34315 20.6569 0 19 0C17.3431 0 16 1.34315 16 3C16 4.65685 17.3431 6 19 6Z" fill="url(#paint0_linear_313_194)"/>
<path d="M7 8C6.45 8 6 7.55 6 7C6 6.45 6.45 6 7 6H15.03C14.5969 5.43925 14.2904 4.79134 14.1316 4.10083C13.9728 3.41033 13.9654 2.69362 14.11 2H4.01C3.47957 2 2.97086 2.21071 2.59579 2.58579C2.22071 2.96086 2.01 3.46957 2.01 4L2 19.58C2 20.47 3.08 20.92 3.71 20.29L6 18H20C21.1 18 22 17.1 22 16V6.97C21.16 7.61 20.13 8 19 8H7ZM13 14H7C6.45 14 6 13.55 6 13C6 12.45 6.45 12 7 12H13C13.55 12 14 12.45 14 13C14 13.55 13.55 14 13 14ZM17 11H7C6.45 11 6 10.55 6 10C6 9.45 6.45 9 7 9H17C17.55 9 18 9.45 18 10C18 10.55 17.55 11 17 11Z" fill="url(#paint1_linear_313_194)"/>
<defs>
<linearGradient id="paint0_linear_313_194" x1="19" y1="0" x2="19" y2="6" gradientUnits="userSpaceOnUse">
<stop stop-color="#e80979"/>
<stop offset="1" stop-color="#f8ce16"/>
</linearGradient>
<linearGradient id="paint1_linear_313_194" x1="12" y1="2" x2="12" y2="20.584" gradientUnits="userSpaceOnUse">
<stop stop-color="#e80979"/>
<stop offset="1" stop-color="#f8ce16"/>
</linearGradient>
</defs>
</svg>
