<svg width="24" height="24" viewBox="0 0 24 24" fill="none" xmlns="http://www.w3.org/2000/svg">
<path d="M7.3478 8.6999L8.297 2.3999H3.3602L1.2974 7.7999C1.2338 7.9919 1.2002 8.1911 1.2002 8.3999C1.2002 9.7247 2.5802 10.7999 4.2854 10.7999C5.8574 10.7999 7.157 9.8831 7.3478 8.6999ZM12.0002 10.7999C13.7042 10.7999 15.0854 9.7247 15.0854 8.3999C15.0854 8.3507 15.0818 8.3015 15.0794 8.2547L14.4686 2.3999H9.5318L8.9198 8.2499C8.91696 8.29986 8.91536 8.34987 8.915 8.3999C8.915 9.7247 10.2962 10.7999 12.0002 10.7999ZM18.0002 12.0551V16.7999H6.0002V12.0623C5.4746 12.2519 4.8962 12.3599 4.2854 12.3599C4.0514 12.3599 3.8246 12.3323 3.6002 12.3011V19.9199C3.6002 20.8439 4.355 21.5999 5.2778 21.5999H18.7202C19.6442 21.5999 20.4002 20.8427 20.4002 19.9199V12.3023C20.1734 12.3371 19.9445 12.3568 19.715 12.3611C19.1299 12.3605 18.5494 12.2569 18.0002 12.0551ZM22.7042 7.7999L20.639 2.3999H15.7034L16.6514 8.6903C16.8362 9.8783 18.1358 10.7999 19.715 10.7999C21.419 10.7999 22.8002 9.7247 22.8002 8.3999C22.8002 8.1911 22.7666 7.9919 22.7042 7.7999Z" fill="url(#paint0_linear_313_239)"/>
<defs>
<linearGradient id="paint0_linear_313_239" x1="12.0002" y1="2.3999" x2="12.0002" y2="21.5999" gradientUnits="userSpaceOnUse">
<stop stop-color="#e80979"/>
<stop offset="1" stop-color="#f8ce16"/>
</linearGradient>
</defs>
</svg>
