<svg width="24" height="24" viewBox="0 0 24 24" fill="none" xmlns="http://www.w3.org/2000/svg">
<path fill-rule="evenodd" clip-rule="evenodd" d="M4 4H20.19C21.19 4 22 4.9 22 6V18C22 19.1 21.1 20 20 20H4C2.9 20 2 19.1 2 18V14C3.11 14 4 13.1 4 12C4 10.9 3.11 10 2.01 10V6C2.01 4.9 2.9 4 4 4ZM7 10H17C17.55 10 18 9.55 18 9C18 8.45 17.55 8 17 8H7C6.45 8 6 8.45 6 9C6 9.55 6.45 10 7 10ZM7 13H13C13.55 13 14 12.55 14 12C14 11.45 13.55 11 13 11H7C6.45 11 6 11.45 6 12C6 12.55 6.45 13 7 13ZM17 16H7C6.45 16 6 15.55 6 15C6 14.45 6.45 14 7 14H17C17.55 14 18 14.45 18 15C18 15.55 17.55 16 17 16Z" fill="url(#paint0_linear_313_212)"/>
<defs>
<linearGradient id="paint0_linear_313_212" x1="12" y1="4" x2="12" y2="20" gradientUnits="userSpaceOnUse">
<stop stop-color="#e80979"/>
<stop offset="1" stop-color="#f8ce16"/>
</linearGradient>
</defs>
</svg>
