<svg width="36" height="35" viewBox="0 0 36 35" fill="none" xmlns="http://www.w3.org/2000/svg">
<path fill-rule="evenodd" clip-rule="evenodd" d="M30.3979 21.6354V14.5647C30.3979 12.6681 30.2983 11.0407 29.996 9.68081C29.69 8.30378 29.1565 7.1101 28.2254 6.17895C27.2942 5.2478 26.1005 4.7143 24.7234 4.40827C23.3636 4.10605 21.7361 4.0064 19.8395 4.0064H10.6858C8.78913 4.0064 7.16171 4.10605 5.80186 4.40827C4.42483 4.7143 3.23114 5.2478 2.3 6.17895C1.36885 7.1101 0.835346 8.30378 0.529312 9.68081C0.227092 11.0407 0.127441 12.6681 0.127441 14.5647V23.7185C0.127441 25.6151 0.227092 27.2426 0.529312 28.6023C0.835346 29.9795 1.36885 31.1732 2.3 32.1043C3.23114 33.0354 4.42483 33.5689 5.80186 33.875C7.16171 34.1772 8.78913 34.2768 10.6858 34.2768H19.8395C21.7361 34.2768 23.3636 34.1772 24.7234 33.875C26.1005 33.5689 27.2942 33.0354 28.2254 32.1043C29.1565 31.1732 29.69 29.9795 29.996 28.6023C30.2983 27.2426 30.3979 25.6151 30.3979 23.7185V21.7058C30.3985 21.6824 30.3985 21.6589 30.3979 21.6354ZM3.48425 10.3375C3.25438 11.3719 3.15448 12.7372 3.15448 14.5647V17.7734C4.24402 16.7257 5.25829 15.8686 6.24048 15.2436C7.43059 14.4863 8.6519 14.0195 9.96873 14.0195C11.2856 14.0195 12.5068 14.4863 13.6971 15.2436C14.8723 15.9914 16.0934 17.0717 17.4346 18.4128L19.8945 20.8728C21.3827 19.6459 22.8421 18.7988 24.4128 18.6031C25.4474 18.4741 26.4232 18.6381 27.3708 19.0202V14.5647C27.3708 12.7372 27.2709 11.3719 27.041 10.3375C26.8151 9.32038 26.4839 8.7184 26.0849 8.31939C25.6858 7.92039 25.0839 7.58926 24.0667 7.3632C23.0325 7.13333 21.6671 7.03344 19.8395 7.03344H10.6858C8.8582 7.03344 7.49292 7.13333 6.45858 7.3632C5.44143 7.58926 4.83944 7.92039 4.44043 8.31939C4.04144 8.7184 3.71031 9.32038 3.48425 10.3375Z" fill="#919999"/>
<path fill-rule="evenodd" clip-rule="evenodd" d="M18.2899 13.0875C18.2899 11.4156 19.6452 10.0603 21.3172 10.0603C22.9891 10.0603 24.3444 11.4156 24.3444 13.0875C24.3444 14.7594 22.9891 16.1148 21.3172 16.1148C19.6452 16.1148 18.2899 14.7594 18.2899 13.0875Z" fill="#919999"/>
<g clip-path="url(#clip0_401_4144)">
<path d="M28.6312 0.723419C25.2169 0.723419 22.449 3.49141 22.449 6.90573C22.449 10.3199 25.2169 13.0882 28.6312 13.0882C32.0454 13.0882 34.8136 10.3199 34.8136 6.90573C34.8136 3.49141 32.0455 0.723419 28.6312 0.723419ZM31.2394 7.58583H29.2499V9.66593C29.2498 10.0147 28.9671 10.2975 28.6182 10.2975C28.2692 10.2975 27.9864 10.0147 27.9864 9.66572V7.58583H26.0499C25.701 7.5857 25.4184 7.30297 25.4182 6.95408C25.4182 6.60527 25.701 6.32241 26.0499 6.32233L27.9864 6.32245V4.47637C27.9864 4.12744 28.2693 3.84462 28.6181 3.84462C28.9671 3.84462 29.2499 4.12748 29.2498 4.47637L29.2499 6.32229L31.2392 6.32249C31.5881 6.32229 31.8711 6.60523 31.8709 6.95424C31.8711 7.30317 31.5881 7.58583 31.2394 7.58583Z" fill="#4E4E5A"/>
</g>
<defs>
<clipPath id="clip0_401_4144">
<rect width="12.3647" height="12.3647" fill="white" transform="translate(22.4478 0.723419)"/>
</clipPath>
</defs>
</svg>
