<svg width="213" height="160" viewBox="0 0 213 160" fill="none" xmlns="http://www.w3.org/2000/svg">
<g id="Wallet-rafiki">
<g id="freepik--background-complete--inject-8">
<rect id="Rectangle" x="0.0529785" y="139.83" width="212.786" height="0.106488" fill="white"/>
<rect id="Rectangle_2" x="63.9058" y="142.548" width="9.86476" height="0.106488" fill="#E62053"/>
<rect id="Rectangle_3" x="171.175" y="144.831" width="24.1172" height="0.106488" fill="white"/>
<rect id="Rectangle_4" x="18.2334" y="144.831" width="24.1172" height="0.106488" fill="white"/>
<path id="Shape" fill-rule="evenodd" clip-rule="evenodd" d="M18.7398 120.833H100.914C102.256 120.833 103.344 119.744 103.344 118.401V2.80575C103.344 1.46249 102.256 0.373562 100.914 0.373562H18.7398C17.4077 0.375846 16.3257 1.45118 16.314 2.78445V118.401C16.314 119.742 17.3994 120.831 18.7398 120.833ZM16.4204 2.78446C16.4204 1.50167 17.4582 0.461107 18.7398 0.458757H100.914C102.195 0.46343 103.232 1.50195 103.237 2.78446V118.401C103.232 119.683 102.195 120.722 100.914 120.726H18.7398C17.4582 120.724 16.4204 119.684 16.4204 118.401V2.78446Z" fill="white"/>
<path id="Shape_2" fill-rule="evenodd" clip-rule="evenodd" d="M110.791 120.833H192.969C193.612 120.832 194.229 120.575 194.683 120.119C195.137 119.663 195.392 119.045 195.39 118.401V2.78445C195.379 1.45283 194.299 0.378175 192.969 0.373562H110.791C109.458 0.375821 108.375 1.45049 108.361 2.78445V118.401C108.366 119.742 109.451 120.828 110.791 120.833ZM108.467 2.78446C108.472 1.50195 109.51 0.46343 110.791 0.458757H192.969C194.25 0.46343 195.288 1.50195 195.293 2.78446V118.401C195.288 119.683 194.25 120.722 192.969 120.726H110.791C109.51 120.722 108.472 119.683 108.467 118.401V2.78446Z" fill="white"/>
<rect id="Rectangle_5" x="124.311" y="106.023" width="9.82646" height="34.0378" fill="#F46B6F"/>
<rect id="Rectangle_6" x="117.353" y="106.023" width="9.82646" height="34.0378" fill="#F46B6F"/>
<path id="Path" d="M125.316 140.06H127.18V134.744H123.354L125.316 140.06Z" fill="#FECA0D"/>
<rect id="Rectangle_7" x="67.9572" y="106.023" width="9.82646" height="34.0378" fill="#21A0AA"/>
<rect id="Rectangle_8" x="76.158" y="106.023" width="51.0261" height="31.4225" fill="#E65C00"/>
<path id="Shape_3" fill-rule="evenodd" clip-rule="evenodd" d="M104.003 130.374H124.005C125.069 130.358 125.924 129.493 125.929 128.428V109.298C125.926 108.225 125.056 107.356 123.984 107.356H104.003C102.931 107.356 102.061 108.225 102.058 109.298V128.428C102.063 129.501 102.931 130.37 104.003 130.374ZM102.488 109.307C102.493 108.472 103.17 107.799 104.003 107.799L124.001 107.79C124.401 107.789 124.785 107.947 125.069 108.23C125.352 108.513 125.512 108.897 125.512 109.298V128.466C125.505 129.302 124.823 129.974 123.988 129.97H103.986C103.584 129.965 103.201 129.801 102.92 129.513C102.639 129.226 102.484 128.838 102.488 128.436V109.307Z" fill="#BE1A44"/>
<path id="Shape_4" fill-rule="evenodd" clip-rule="evenodd" d="M79.3115 130.374H99.3133C100.386 130.372 101.256 129.502 101.258 128.428V109.298C101.256 108.225 100.386 107.356 99.3133 107.356H79.3115C78.239 107.356 77.3689 108.225 77.3666 109.298V128.428C77.3713 129.501 78.2393 130.37 79.3115 130.374ZM78.2435 108.239C78.527 107.956 78.9112 107.798 79.3115 107.799L99.3134 107.79C100.147 107.79 100.824 108.464 100.828 109.298V128.436C100.824 129.271 100.148 129.946 99.3134 129.948H79.3115C78.9109 129.948 78.5266 129.789 78.2433 129.505C77.9599 129.222 77.8008 128.837 77.8008 128.436V109.307C77.8008 108.906 77.9601 108.522 78.2435 108.239Z" fill="#BE1A44"/>
<path id="Path_2" d="M97.4579 113.4C96.422 113.4 95.582 112.56 95.5812 111.523C95.5804 110.486 96.4192 109.645 97.4551 109.643C98.4911 109.642 99.3324 110.48 99.3347 111.517C99.3347 112.555 98.4951 113.398 97.4579 113.4Z" fill="white"/>
<path id="Path_3" d="M105.876 113.4C104.839 113.407 103.993 112.572 103.986 111.534C103.979 110.497 104.814 109.65 105.85 109.643C106.887 109.636 107.733 110.471 107.74 111.509V111.547C107.728 112.571 106.898 113.395 105.876 113.4Z" fill="white"/>
<path id="Path_4" d="M78.022 140.06H76.1537V134.744H79.9796L78.022 140.06Z" fill="#FECA0D"/>
<rect id="Rectangle_9" x="64.8292" y="106.023" width="9.82646" height="34.0378" fill="#21A0AA"/>
<path id="Path_5" d="M72.7875 140.06H74.6557V134.744H70.8298L72.7875 140.06Z" fill="#FECA0D"/>
<rect id="Rectangle_10" x="23.6297" y="106.023" width="51.0261" height="31.4225" fill="#E65C00"/>
<path id="Shape_5" fill-rule="evenodd" clip-rule="evenodd" d="M51.4749 130.374H71.4768C72.5426 130.363 73.4004 129.494 73.4003 128.428V109.298C73.398 108.225 72.5279 107.356 71.4555 107.356H51.4749C50.4024 107.356 49.5324 108.225 49.53 109.298V128.428C49.53 129.503 50.4008 130.374 51.4749 130.374ZM50.4067 108.239C50.6902 107.956 51.0745 107.798 51.4748 107.799L71.4809 107.79C72.3127 107.793 72.987 108.466 72.9917 109.298V128.466C72.9823 129.302 72.2997 129.974 71.4639 129.97H51.462C51.0602 129.965 50.6766 129.801 50.3957 129.513C50.1147 129.226 49.9594 128.838 49.964 128.436V109.307C49.964 108.906 50.1233 108.522 50.4067 108.239Z" fill="#BE1A44"/>
<path id="Shape_6" fill-rule="evenodd" clip-rule="evenodd" d="M26.8086 130.374H46.785C47.8581 130.372 48.7275 129.502 48.7298 128.428V109.298C48.7299 108.782 48.5248 108.288 48.16 107.923C47.7951 107.559 47.3004 107.355 46.785 107.356H26.8086C26.2932 107.355 25.7985 107.559 25.4337 107.923C25.0688 108.288 24.8638 108.782 24.8638 109.298V128.428C24.8638 129.503 25.7345 130.374 26.8086 130.374ZM25.7378 108.237C26.0222 107.954 26.4076 107.796 26.8086 107.799L46.7935 107.782C47.1945 107.779 47.5799 107.937 47.8643 108.22C48.1486 108.503 48.3085 108.888 48.3085 109.29V128.457C48.3085 128.859 48.1488 129.244 47.8645 129.528C47.5803 129.812 47.1949 129.971 46.7935 129.97H26.7916C26.3898 129.965 26.0062 129.801 25.7253 129.513C25.4443 129.226 25.289 128.838 25.2936 128.436V109.307C25.2936 108.905 25.4535 108.52 25.7378 108.237Z" fill="white"/>
<path id="Path_6" d="M44.9338 113.4C43.8973 113.402 43.0551 112.563 43.0528 111.526C43.0504 110.488 43.8888 109.645 44.9253 109.643C45.9618 109.641 46.804 110.48 46.8063 111.517C46.8086 112.016 46.6123 112.495 46.2609 112.848C45.9095 113.201 45.4319 113.4 44.9338 113.4Z" fill="white"/>
<path id="Path_7" d="M53.3516 113.4C52.3151 113.407 51.4692 112.572 51.4621 111.534C51.4551 110.497 52.2896 109.65 53.3261 109.643C54.3626 109.636 55.2085 110.471 55.2156 111.509V111.547C55.204 112.571 54.3742 113.395 53.3516 113.4Z" fill="white"/>
<path id="Path_8" d="M25.4937 140.06H23.6297V134.744H27.4513L25.4937 140.06Z" fill="#FECA0D"/>
<rect id="Rectangle_11" x="95.5172" y="11.6698" width="18.2826" height="18.2989" fill="#F25650"/>
<rect id="Rectangle_12" x="113.804" y="11.6741" width="0.808587" height="18.2989" fill="#BE1A44"/>
<rect id="Rectangle_13" x="97.9984" y="14.1531" width="13.3289" height="13.3408" fill="#E4F9E6"/>
<path id="Path_9" d="M106.893 23.0513C106.301 23.6446 105.498 23.978 104.661 23.978C103.823 23.978 103.02 23.6446 102.429 23.0513C101.199 21.8177 101.199 19.8209 102.429 18.5873C103.663 17.3563 105.659 17.3563 106.893 18.5873C108.122 19.8209 108.122 21.8177 106.893 23.0513Z" fill="#90D3F4"/>
<rect id="Rectangle_14" x="74.4557" y="35.1994" width="21.4361" height="21.4552" fill="#F25650"/>
<rect id="Rectangle_15" x="95.8917" y="35.2037" width="0.949026" height="21.4552" fill="#BE1A44"/>
<rect id="Rectangle_16" x="77.3624" y="38.1087" width="15.627" height="15.641" fill="#E4F9E6"/>
<rect id="Rectangle_17" x="81.8394" y="42.5897" width="6.66446" height="6.67041" fill="#90D3F4"/>
<rect id="Rectangle_18" x="180.168" y="28.299" width="11.6053" height="2.71332" fill="#086C22"/>
<rect id="Rectangle_19" x="132.129" y="28.299" width="48.0386" height="2.71332" fill="#CCEECF"/>
<rect id="Rectangle_20" x="145.901" y="13.8933" width="13.5247" height="14.41" fill="#BE1A44"/>
<rect id="Rectangle_21" x="142.437" y="13.8933" width="3.46416" height="14.41" fill="#316E41"/>
<rect id="Rectangle_22" x="152.812" y="11.6698" width="10.1584" height="16.6292" fill="#21A0AA"/>
<rect id="Rectangle_23" x="149.88" y="11.6698" width="2.93645" height="16.6292" fill="#316E41"/>
<rect id="Rectangle_24" x="155.808" y="13.8933" width="8.56676" height="14.41" fill="#316E41"/>
<rect id="Rectangle_25" x="153.85" y="13.8933" width="1.95763" height="14.41" fill="white"/>
<rect id="Rectangle_26" x="162.817" y="16.3297" width="11.2351" height="11.9693" fill="#21A0AA"/>
<rect id="Rectangle_27" x="159.94" y="16.3297" width="2.87687" height="11.9693" fill="white"/>
<rect id="Rectangle_28" x="168.558" y="14.4854" width="8.43909" height="13.8179" fill="#21A0AA"/>
<rect id="Rectangle_29" x="166.12" y="14.4854" width="2.43853" height="13.8179" fill="#316E41"/>
<rect id="Rectangle_30" x="171.043" y="16.3297" width="8.19652" height="11.9693" fill="#316E41"/>
<rect id="Rectangle_31" x="169.418" y="16.3297" width="1.62568" height="11.9693" fill="white"/>
<path id="Path_10" d="M173.299 108.744C176.934 103.991 185.585 102.223 188.577 99.2243C192.492 95.2928 192.475 89.3934 189.139 87.2636C186.245 85.415 176.644 97.9124 175.567 99.318C171.844 104.127 170.767 107.692 170.069 111.147C170.15 108.212 170.227 105.511 170.29 103.433C170.49 96.6473 170.741 94.4622 170.861 93.7934C171.286 93.4612 171.737 93.0821 172.01 92.8776C174.333 91.144 179.483 89.0781 182.057 86.5608C185.819 82.8805 185.211 78.4677 182.572 76.8363C179.819 75.1325 174.942 79.1748 172.359 83.1915C169.775 87.2082 170.878 91.0588 170.154 94.3685C170.001 95.0244 169.843 97.5077 169.699 100.954C169.086 97.5579 167.209 94.5211 164.447 92.4559C160.885 89.6106 157.808 86.1433 154.872 86.5906C151.935 87.0378 153.531 91.6253 155.838 94.8455C157.906 97.7122 168.116 100.575 169.618 102.879C169.439 107.564 169.282 113.464 169.171 118.976C168.367 116.13 168.92 115.892 165.622 111.522C163.664 108.932 155.621 105.729 154.668 107.518C153.714 109.307 155.166 112.663 158.2 115.019C160.647 116.918 166.056 116.914 167.337 118.094C167.631 118.367 168.614 119.423 169.15 120.032C169.018 126.754 168.963 132.687 169.026 134.715L169.554 134.736C169.529 134.212 169.588 130.792 169.695 126.264C171.014 123.857 179.908 122.43 182.636 119.943C185.505 117.323 187.564 114.265 186.334 112.216C185.309 110.512 177.236 112.829 173.929 115.658C171.742 117.54 170.405 119.555 169.792 122.256C169.865 119.172 169.954 115.866 170.035 112.736C170.707 111.973 172.21 110.171 173.299 108.744Z" fill="#CCEECF"/>
<path id="Path_11" d="M174.074 139.971H164.856C164.349 139.971 163.915 139.315 163.817 138.403L163.162 132.44H175.763L175.112 138.403C175.006 139.315 174.576 139.971 174.074 139.971Z" fill="#893C08"/>
<path id="Path_12" d="M176.027 134.745H162.898C162.583 134.745 162.319 134.319 162.285 133.731L162.017 129.318C161.975 128.641 162.26 128.04 162.63 128.04H176.299C176.665 128.04 176.951 128.632 176.908 129.318L176.64 133.731C176.61 134.31 176.342 134.745 176.027 134.745Z" fill="#893C08"/>
<g id="freepik--Shadow--inject-62--inject-8">
<ellipse id="freepik--path--inject-62--inject-8" cx="106.446" cy="154.245" rx="82.5142" ry="4.82178" fill="#CCEECF"/>
</g>
</g>
<g id="freepik--Coins--inject-8">
<path id="Path_13" d="M91.3339 43.2585C90.3934 45.5458 84.8567 45.3882 79.0561 42.9944C73.2556 40.6005 69.3105 36.8053 70.251 34.5179C70.4723 33.9897 71.1022 32.009 71.732 31.7364C73.8939 30.8206 78.0092 32.878 82.465 34.7181C86.6143 36.4219 91.3594 37.5337 92.0956 39.7869C92.5382 41.1585 91.602 42.6067 91.3339 43.2585Z" fill="#FECA0D"/>
<path id="Path_14" opacity="0.2" d="M92.0957 39.7869C92.4489 41.5802 91.6701 42.4406 91.3339 43.2585C90.9977 44.0763 90.0146 44.613 88.64 44.8004C88.4682 44.8296 88.2949 44.8495 88.1208 44.86C87.0668 44.9221 86.0091 44.8663 84.9674 44.6939C84.8184 44.6939 84.6695 44.6471 84.5162 44.6215C83.2934 44.4018 82.0885 44.0914 80.9117 43.6929L80.4861 43.5481C80.0137 43.382 79.5285 43.1988 79.0434 42.9986C78.5582 42.7984 78.0986 42.5727 77.6433 42.3725L77.2517 42.1851C76.1789 41.6541 75.145 41.0477 74.1578 40.3705L73.8089 40.1234C72.9471 39.5138 72.1575 38.8078 71.4554 38.0192C71.349 37.9 71.2512 37.785 71.1575 37.6657C70.2426 36.5071 69.8808 35.3996 70.2426 34.5179C70.4809 33.9514 70.9916 32.0133 71.7236 31.7322C72.6238 31.4783 73.5767 31.4783 74.477 31.7322L74.9026 31.8344C77.0304 32.3796 79.7115 33.5936 82.448 34.7224C85.6738 36.0556 89.4912 37.4399 91.3637 39.0373C91.4751 39.1311 91.5817 39.2306 91.6829 39.3354C91.8323 39.4747 91.9703 39.6257 92.0957 39.7869Z" fill="black"/>
<g id="Group" opacity="0.2">
<path id="Path_15" d="M75.1154 31.4681L74.9196 31.8259L71.464 38.015C71.3576 37.8957 71.2597 37.7807 71.1661 37.6614L74.4855 31.7237L74.7451 31.2636L75.1154 31.4681Z" fill="black"/>
</g>
<g id="Group_2" opacity="0.2">
<path id="Path_16" d="M77.7283 33.994L74.1663 40.3833L73.8173 40.1362L77.3581 33.798L77.7283 33.994Z" fill="black"/>
</g>
<g id="Group_3" opacity="0.2">
<path id="Path_17" d="M84.278 37.6572L80.9117 43.6929L80.4861 43.5481L83.8907 37.4314L84.278 37.6572Z" fill="black"/>
</g>
<g id="Group_4" opacity="0.2">
<path id="Path_18" d="M81.2308 35.9534L77.6518 42.3725L77.2603 42.1851L80.8606 35.7276L81.2308 35.9534Z" fill="black"/>
</g>
<g id="Group_5" opacity="0.2">
<path id="Path_19" d="M88.2485 38.8243L84.9673 44.6939C84.8183 44.6939 84.6694 44.6471 84.5162 44.6215L87.874 38.6113L88.2485 38.8243Z" fill="black"/>
</g>
<path id="Path_20" d="M92.0701 41.265C91.1296 43.5524 85.661 43.4629 79.8562 41.0648C74.0514 38.6667 70.1106 34.8757 71.0554 32.5883C72.0002 30.301 77.4645 30.3947 83.2693 32.7885C89.0741 35.1824 93.0107 38.9649 92.0701 41.265Z" fill="#FECA0D"/>
<path id="Path_21" opacity="0.2" d="M90.0955 40.4344C89.4316 42.0487 85.1674 41.823 80.5755 39.9275C75.9835 38.032 72.8003 35.1824 73.4641 33.568C74.128 31.9537 78.3923 32.1794 82.9884 34.0749C87.5846 35.9704 90.7637 38.82 90.0955 40.4344Z" fill="white"/>
<path id="Path_22" d="M120.664 22.5827C122.179 24.5379 119.294 29.2702 114.328 33.1165C109.361 36.9629 104.114 38.4963 102.603 36.5242C102.254 36.0726 100.841 34.5605 100.926 33.8534C101.211 31.5235 105.037 28.9763 108.85 26.0202C112.4 23.2685 115.715 19.699 118.034 20.1804C119.443 20.4913 120.234 22.029 120.664 22.5827Z" fill="#FECA0D"/>
<path id="Path_23" opacity="0.2" d="M118.034 20.1974C119.766 20.7852 120.124 21.9012 120.664 22.5827C121.205 23.2642 121.183 24.4015 120.664 25.6922C120.605 25.8498 120.532 26.0074 120.456 26.1692C119.989 27.1162 119.418 28.0077 118.753 28.8272C118.664 28.9464 118.566 29.0615 118.468 29.1807C117.668 30.1361 116.797 31.0302 115.864 31.8557L115.536 32.1411C115.157 32.4691 114.757 32.7971 114.345 33.1165C113.932 33.436 113.519 33.7384 113.102 34.0238C112.987 34.109 112.864 34.1899 112.749 34.2709C111.754 34.9385 110.713 35.5335 109.633 36.0513C109.502 36.1195 109.374 36.1749 109.25 36.2345C108.291 36.6787 107.285 37.0131 106.25 37.2312C106.097 37.2653 105.948 37.2909 105.799 37.3122C104.339 37.5294 103.199 37.3122 102.616 36.5412C102.241 36.0556 100.816 34.6457 100.939 33.8747C101.162 32.9633 101.635 32.1326 102.305 31.4766C102.399 31.3701 102.501 31.2636 102.607 31.1529C104.144 29.5598 106.523 27.8517 108.863 26.0415C111.625 23.9117 114.723 21.275 117.034 20.4487C117.174 20.3974 117.316 20.3533 117.46 20.3167C117.648 20.2629 117.84 20.2231 118.034 20.1974V20.1974Z" fill="black"/>
<g id="Group_6" opacity="0.2">
<path id="Path_24" d="M102.382 30.8036L102.595 31.1529L106.237 37.2312C106.084 37.2653 105.935 37.2909 105.786 37.3122L102.292 31.4681L102.02 31.0421L102.382 30.8036Z" fill="black"/>
</g>
<g id="Group_7" opacity="0.2">
<path id="Path_25" d="M105.867 29.7898L109.621 36.0513C109.489 36.1195 109.361 36.1749 109.238 36.2345L105.501 30.0071L105.867 29.7898Z" fill="black"/>
</g>
<g id="Group_8" opacity="0.2">
<path id="Path_26" d="M112.298 25.9307L115.851 31.86L115.523 32.1454L111.932 26.148L112.298 25.9307Z" fill="black"/>
</g>
<g id="Group_9" opacity="0.2">
<path id="Path_27" d="M109.31 27.724L113.089 34.0238C112.974 34.109 112.851 34.1899 112.736 34.2709L108.94 27.9412L109.31 27.724Z" fill="black"/>
</g>
<g id="Group_10" opacity="0.2">
<path id="Path_28" d="M115.285 23.0555L118.741 28.8272C118.651 28.9464 118.553 29.0615 118.456 29.1807L114.919 23.277L115.285 23.0555Z" fill="black"/>
</g>
<ellipse id="Oval" cx="110.3" cy="27.9056" rx="11.3708" ry="4.47526" transform="rotate(-37.76 110.3 27.9056)" fill="#FECA0D"/>
<ellipse id="Oval_2" opacity="0.2" cx="110.487" cy="27.7573" rx="8.99961" ry="3.16377" transform="rotate(-37.76 110.487 27.7573)" fill="white"/>
<path id="Path_29" d="M100.122 13.4247C99.6368 16.2275 93.3554 17.4117 86.2398 16.1338C79.1242 14.8559 73.7578 11.5633 74.2557 8.76057C74.3706 8.10886 74.5706 5.73631 75.2387 5.2635C77.4475 3.70452 82.5799 5.00793 88.0442 5.9791C93.1511 6.88638 98.7388 6.95879 100.122 9.31431C100.96 10.7625 100.262 12.624 100.122 13.4247Z" fill="#FECA0D"/>
<path id="Path_30" opacity="0.2" d="M100.122 9.31858C100.973 11.2524 100.296 12.4067 100.122 13.412C99.9475 14.4172 98.9729 15.2564 97.4749 15.8101C97.2919 15.8825 97.1004 15.9421 96.9047 16.0018C95.7329 16.3314 94.5283 16.53 93.3128 16.5938C93.1383 16.5938 92.9681 16.5938 92.7894 16.6237C91.3575 16.6764 89.9237 16.6237 88.4996 16.4661L88.0017 16.4022C87.4272 16.3298 86.8356 16.2446 86.2441 16.1381C85.6525 16.0316 85.078 15.9123 84.512 15.7803C84.3503 15.7462 84.1886 15.7036 84.0268 15.6653C82.6898 15.3348 81.3784 14.9077 80.1031 14.3874C79.9456 14.3278 79.7967 14.2596 79.6477 14.2C78.5284 13.7231 77.4663 13.1216 76.4815 12.4067C76.3325 12.3002 76.1963 12.1938 76.0559 12.083C74.7366 11.0053 74.06 9.84676 74.2515 8.7691C74.3791 8.07054 74.4813 5.78743 75.2303 5.27203C75.9793 4.75663 77.0517 4.59477 78.3284 4.59051H78.8391C81.3926 4.6757 84.6822 5.38704 88.04 5.98337C91.9978 6.69045 96.6323 7.30808 99.1261 8.64557C99.2724 8.72317 99.4145 8.80848 99.5517 8.90114C99.7524 9.02521 99.943 9.16478 100.122 9.31858Z" fill="black"/>
<g id="Group_11" opacity="0.2">
<path id="Path_31" d="M78.9795 4.15602L78.8433 4.60327L76.4771 12.4152C76.3282 12.3088 76.192 12.2023 76.0516 12.0915L78.3241 4.59901L78.5029 4.01546L78.9795 4.15602Z" fill="black"/>
</g>
<g id="Group_12" opacity="0.2">
<path id="Path_32" d="M82.5373 6.3369L80.0988 14.3831C79.9413 14.3235 79.7924 14.2554 79.6434 14.1957L82.0692 6.18782L82.5373 6.3369Z" fill="black"/>
</g>
<g id="Group_13" opacity="0.2">
<path id="Path_33" d="M90.8062 8.85855L88.4953 16.4788L87.9974 16.4149L90.3338 8.71373L90.8062 8.85855Z" fill="black"/>
</g>
<g id="Group_14" opacity="0.2">
<path id="Path_34" d="M86.9633 7.69143L84.5077 15.7845C84.346 15.7505 84.1843 15.7079 84.0226 15.6695L86.4909 7.53809L86.9633 7.69143Z" fill="black"/>
</g>
<g id="Group_15" opacity="0.2">
<path id="Path_35" d="M95.5598 9.19078L93.3085 16.6066C93.134 16.6066 92.9638 16.6066 92.7851 16.6364L95.0874 9.05022L95.5598 9.19078Z" fill="black"/>
</g>
<ellipse id="Oval_3" cx="87.5653" cy="8.6822" rx="5.15388" ry="13.091" transform="rotate(-79.91 87.5653 8.6822)" fill="#FECA0D"/>
<ellipse id="Oval_4" opacity="0.2" cx="87.8328" cy="8.73289" rx="3.64179" ry="10.3587" transform="rotate(-79.91 87.8328 8.73289)" fill="white"/>
</g>
<g id="freepik--Wallet--inject-8">
<path id="Path_36" d="M137.274 84.9805L93.4788 87.5362C91.9317 87.6274 90.4137 87.9968 88.9975 88.6266L41.4271 109.924C39.7071 110.681 38.7493 112.538 39.129 114.38L46.9893 151.587C47.2586 152.801 48.0735 153.822 49.197 154.354C50.3205 154.885 51.6263 154.867 52.7345 154.304L99.6879 130.843L143.045 129.39C144.124 129.361 145.139 128.869 145.831 128.039C146.522 127.21 146.824 126.122 146.658 125.054L140.858 89.4274C140.556 87.5873 139.16 84.9251 137.274 84.9805Z" fill="#99DEA0"/>
<path id="Path_37" opacity="0.9" d="M137.274 84.9805L93.4788 87.5362C91.9317 87.6274 90.4137 87.9968 88.9975 88.6266L41.4271 109.924C39.7071 110.681 38.7493 112.538 39.129 114.38L46.9893 151.587C47.2586 152.801 48.0735 153.822 49.197 154.354C50.3205 154.885 51.6263 154.867 52.7345 154.304L99.6879 130.843L143.045 129.39C144.124 129.361 145.139 128.869 145.831 128.039C146.522 127.21 146.824 126.122 146.658 125.054L140.858 89.4274C140.556 87.5873 139.16 84.9251 137.274 84.9805Z" fill="#8C545B"/>
<path id="Rectangle_32" d="M26.3846 81.9592L49.3678 60.7542L90.6121 105.537L67.6289 126.742L26.3846 81.9592Z" fill="#99DEA0"/>
<path id="Path_38" opacity="0.5" d="M90.6061 105.541L67.621 126.745L26.3831 81.9647L41.4653 68.0489L49.3682 60.7566L50.6832 62.1878L90.6061 105.541Z" fill="white"/>
<path id="Rectangle_33" fill-rule="evenodd" clip-rule="evenodd" d="M29.2356 82.2026L49.5153 63.492L88.0944 105.381L67.8147 124.092L29.2356 82.2026Z" stroke="#99DEA0" stroke-width="0.567429"/>
<ellipse id="Oval_5" cx="58.3594" cy="93.4646" rx="5.73055" ry="7.18713" transform="rotate(-42.67 58.3594 93.4646)" fill="#10BE3D"/>
<path id="Path_39" opacity="0.1" d="M67.3784 108.57L59.2117 111.394L41.4653 68.0489L49.3682 60.7566L50.6832 62.1878L67.3784 108.57Z" fill="black"/>
<path id="Rectangle_34" d="M39.5834 53.8741L68.9696 43.2095L89.7125 100.469L60.3263 111.133L39.5834 53.8741Z" fill="#99DEA0"/>
<path id="Rectangle_35" opacity="0.5" d="M39.5834 53.8741L68.9696 43.2095L89.7125 100.469L60.3263 111.133L39.5834 53.8741Z" fill="white"/>
<path id="Rectangle_36" fill-rule="evenodd" clip-rule="evenodd" d="M42.1165 55.2016L68.046 45.7915L87.4485 99.3507L61.519 108.761L42.1165 55.2016Z" stroke="#99DEA0" stroke-width="0.567429"/>
<ellipse id="Oval_6" cx="64.6323" cy="76.8526" rx="5.7288" ry="7.18933" transform="rotate(-19.93 64.6323 76.8526)" fill="#10BE3D"/>
<path id="Path_40" d="M137.56 86.4926L94.364 88.9291C92.8327 89.0131 91.3304 89.3814 89.9337 90.0153L43.0612 111.194C41.3604 111.963 40.4225 113.812 40.8057 115.641L48.666 152.865C48.9226 154.071 49.7235 155.091 50.8346 155.625C51.9457 156.16 53.2415 156.148 54.3432 155.595L100.603 132.265L143.364 130.911C144.435 130.877 145.44 130.383 146.121 129.555C146.802 128.727 147.094 127.646 146.922 126.588L141.105 90.9651C140.802 89.108 139.424 86.4415 137.56 86.4926Z" fill="#B06972"/>
<path id="Path_41" opacity="0.2" d="M96.1216 95.4461L133.185 93.163" stroke="black" stroke-width="1.13486" stroke-linecap="round" stroke-linejoin="round"/>
<path id="Path_42" opacity="0.2" d="M91.6828 96.4045L98.4537 127.533" stroke="black" stroke-width="1.13486" stroke-linecap="round" stroke-linejoin="round"/>
<path id="Path_43" opacity="0.2" d="M46.5382 124.509L51.3131 148.452C51.3131 148.452 54.973 138.953 46.5382 124.509Z" fill="white"/>
<path id="Path_44" opacity="0.2" d="M47.1638 124.79C47.3297 125.216 89.5763 107.07 89.5763 107.07C89.8097 115.46 85.3074 123.267 77.9326 127.261C65.2165 134.395 47.1638 124.79 47.1638 124.79Z" fill="white"/>
<ellipse id="Oval_7" cx="75.226" cy="123.665" rx="1.82996" ry="1.8316" fill="#8C545B"/>
<path id="Path_45" opacity="0.2" d="M89.5975 107.07C89.5975 107.07 94.8363 114.963 93.5681 128.406L89.5975 107.07Z" fill="black"/>
<g id="Group_16" opacity="0.2">
<path id="Path_46" d="M44.5167 115.104L45.4912 114.674" stroke="white" stroke-width="0.567429" stroke-linecap="round" stroke-linejoin="round"/>
<path id="Path_47" d="M47.5127 113.779L86.9633 96.3236" stroke="white" stroke-width="0.567429" stroke-linecap="round" stroke-linejoin="round" stroke-dasharray="2.95 2.95"/>
<path id="Path_48" d="M87.9761 95.8763L88.9464 95.4461" stroke="white" stroke-width="0.567429" stroke-linecap="round" stroke-linejoin="round"/>
</g>
<path id="Path_49" opacity="0.2" d="M97.3643 102.445L134.427 100.157" stroke="black" stroke-width="1.13486" stroke-linecap="round" stroke-linejoin="round"/>
<path id="Path_50" opacity="0.2" d="M99.0324 111.172L136.096 108.885" stroke="black" stroke-width="1.13486" stroke-linecap="round" stroke-linejoin="round"/>
</g>
<g id="freepik--Character--inject-8">
<path id="Path_51" d="M127.971 49.1707C127.971 49.1707 127.039 59.1082 123.35 59.9643C121.065 60.4583 118.682 60.2198 116.54 59.2828L113.54 56.9741L112.076 62.0856C112.076 62.0856 113.676 64.2622 117.017 62.7543C117.017 62.7543 122.975 65.3782 126.269 62.7543C129.563 60.1304 130.618 52.9318 130.618 52.9318L127.971 49.1707Z" fill="#B97964"/>
<path id="Path_52" d="M130.938 44.3574C130.938 44.3574 128.363 39.9659 129.533 32.0048C130.704 24.0438 137.372 23.0598 139.947 23.6348C142.522 24.2099 144.628 26.6847 146.382 31.3957C148.135 36.1067 148.782 37.3335 151.706 36.5071C154.629 35.6808 162.409 33.0995 164.575 35.3954C165.84 36.669 166.388 38.4903 166.035 40.2512C166.035 40.2512 176.857 37.6189 175.921 47.2795C174.984 56.9401 159.366 65.9575 144.509 56.4119C129.652 46.8663 130.938 44.3574 130.938 44.3574Z" fill="#263238"/>
<path id="Path_53" d="M130.818 67.7379C130.818 67.7379 127.878 93.0523 127.976 104.924C128.073 116.795 132.287 144.771 132.287 144.771H137.483C137.483 144.771 136.798 122.4 136.896 114.746C136.993 107.092 138.364 94.4281 138.364 94.4281C138.364 94.4281 140.028 105.81 141.99 109.831C143.952 113.852 154.833 128.083 162.383 132.5L165.911 129.258C165.911 129.258 158.068 119.547 155.127 114.738C152.186 109.929 149.544 108.565 148.463 99.6205C147.382 90.6755 149.25 76.3677 146.113 67.7337L130.818 67.7379Z" fill="#263238"/>
<path id="Path_54" opacity="0.2" d="M138.364 94.4281L136.104 78.3825C136.104 78.3825 134.321 88.026 137.832 99.8036L138.364 94.4281Z" fill="black"/>
<path id="Path_55" d="M133.355 146.19L133.529 151.161L137.015 151.45L137.189 150.986V145.841L133.355 146.19Z" fill="#FFB573"/>
<path id="Path_56" d="M131.699 144.299L132.019 146.16L138.002 146.305L138.381 144.069L131.699 144.299Z" fill="#99DEA0"/>
<path id="Path_57" d="M160.745 132.845L166.29 127.674L167.511 129.62L162.749 133.982L160.745 132.845Z" fill="#99DEA0"/>
<path id="Path_58" d="M163.417 132.845L167.077 135.929L169.426 133.164L166.422 130.055L163.417 132.845Z" fill="#FFB573"/>
<path id="Path_59" d="M170.137 132.951L172.35 134.314C172.554 134.44 172.692 134.65 172.728 134.887C172.763 135.125 172.692 135.365 172.533 135.545C170.929 137.36 166.83 141.969 166.422 142.292C165.915 142.718 165.303 142.003 165.145 141.364C165.145 141.364 166.307 139.822 166.422 138.834C166.47 138.071 166.47 137.305 166.422 136.542C166.413 136.351 166.477 136.164 166.601 136.018L169.073 133.113C169.337 132.8 169.792 132.731 170.137 132.951Z" fill="#263238"/>
<path id="Path_60" d="M137.866 151.587L138.326 154.142C138.368 154.379 138.304 154.622 138.151 154.807C137.997 154.992 137.77 155.1 137.53 155.101C135.108 155.101 128.946 155.126 128.431 155.041C127.788 154.935 127.903 154.015 128.282 153.478C128.282 153.478 130.201 153.316 131.006 152.732C131.604 152.263 132.172 151.756 132.708 151.216C132.845 151.082 133.027 151.004 133.219 150.999L137.028 150.909C137.437 150.895 137.794 151.183 137.866 151.587Z" fill="#263238"/>
<path id="Path_61" d="M146.671 53.6985L151.982 49.9672C151.982 49.9672 150.569 44.3106 148.475 44.0294C146.382 43.7483 135.989 41.7676 129.38 44.0294C129.38 44.0294 127.005 44.7067 126.273 51.3814L129.099 52.2844C129.099 52.2844 130.112 64.7818 130.738 66.7071H145.82C145.82 66.7071 145.99 55.9603 146.671 53.6985Z" fill="#F25650"/>
<path id="Path_62" d="M147.816 52.8935C147.816 52.8935 149.829 58.6439 150.186 61.7363C150.186 61.7363 145.403 59.828 144.169 58.9548L143.232 55.5898L140.066 54.0436L139.126 56.5993L141.768 59.8791C141.768 59.8791 148.973 66.6262 152.625 65.0843C156.276 63.5423 151.182 50.5422 151.182 50.5422L147.816 52.8935Z" fill="#FFB573"/>
<path id="Path_63" d="M134.304 27.7154C134.304 27.7154 132.461 31.3957 132.602 34.3901C132.742 37.3846 134.253 38.6071 137.125 39.0287C137.125 39.0287 138.351 42.8623 135.134 43.2499C134.887 43.2797 134.802 44.2552 134.819 44.4128C134.904 45.0347 135.521 45.3754 136.095 45.5203C136.701 45.6544 137.318 45.7229 137.938 45.7247C139.257 45.7702 140.523 45.2063 141.373 44.1955C141.441 44.1146 142.088 43.2883 142.088 43.2883C142.088 43.2883 140.551 42.5258 141.092 37.5336C141.825 37.0559 142.388 36.3581 142.7 35.5402C143.293 35.2252 143.735 34.6849 143.926 34.0408C144.156 33.0441 143.275 31.664 141.666 33.0441C141.666 33.0441 138.636 31.5107 137.487 26.1394C136.635 27.0106 135.513 27.5663 134.304 27.7154Z" fill="#FFB573"/>
<path id="Path_64" d="M135.168 33.5723L135.427 31.6044L134.036 33.1463C134.327 33.4563 134.745 33.6137 135.168 33.5723Z" fill="#ED893E"/>
<path id="Path_65" d="M135.976 35.012C135.976 35.012 137.445 35.2378 138.151 34.2964" stroke="#222221" stroke-width="0.425572" stroke-linecap="round" stroke-linejoin="round"/>
<path id="Path_66" d="M137.445 28.8485C138.124 28.6553 138.854 28.8499 139.347 29.3554" stroke="#222221" stroke-width="0.567429" stroke-linecap="round" stroke-linejoin="round"/>
<path id="Path_67" d="M134.904 28.4225C134.904 28.4225 134.053 28.2905 133.674 28.7718" stroke="#222221" stroke-width="0.567429" stroke-linecap="round" stroke-linejoin="round"/>
<path id="Path_68" d="M138.036 31.4383C137.998 31.7365 137.806 31.9537 137.611 31.9281C137.415 31.9026 137.283 31.6428 137.321 31.3446C137.359 31.0464 137.551 30.8292 137.747 30.8547C137.943 30.8803 138.074 31.1401 138.036 31.4383Z" fill="#222221"/>
<ellipse id="Oval_8" cx="134.28" cy="30.7324" rx="0.540951" ry="0.361742" transform="rotate(-82.6 134.28 30.7324)" fill="#222221"/>
<path id="Path_69" d="M137.751 30.8547L137.079 30.5608C137.097 30.7107 137.193 30.8399 137.331 30.9003C137.469 30.9607 137.629 30.9434 137.751 30.8547Z" fill="#222221"/>
<path id="Path_70" d="M134.415 30.2243L133.742 29.9304C133.76 30.0803 133.856 30.2095 133.994 30.2699C134.133 30.3303 134.292 30.313 134.415 30.2243Z" fill="#222221"/>
<path id="Path_71" d="M130.21 66.0426V67.8189L146.552 67.9552L146.113 65.8424L130.21 66.0426Z" fill="#99DEA0"/>
<path id="Path_72" d="M130.21 66.0426V67.8189L146.552 67.9552L146.113 65.8424L130.21 66.0426Z" fill="white"/>
</g>
<g id="freepik--Card--inject-8">
<path id="Path_73" d="M130.41 57.4214L121.422 88.7118C120.81 90.8558 118.956 92.4112 116.741 92.6391C116.051 92.7051 115.355 92.6415 114.689 92.4517L97.5089 87.5064C94.6173 86.6713 92.946 83.6516 93.7724 80.755L102.765 49.4561C103.601 46.5658 106.615 44.8972 109.506 45.7247L126.699 50.6658C129.584 51.5099 131.243 54.5308 130.41 57.4214Z" fill="#99DEA0"/>
<path id="Path_74" opacity="0.66" d="M130.41 57.4214L121.422 88.7118C120.81 90.8558 118.956 92.4112 116.741 92.6391C116.051 92.7051 115.355 92.6415 114.689 92.4517L97.5089 87.5064C94.6173 86.6713 92.946 83.6516 93.7724 80.755L102.765 49.4561C103.601 46.5658 106.615 44.8972 109.506 45.7247L126.699 50.6658C129.584 51.5099 131.243 54.5308 130.41 57.4214Z" fill="#133F6C"/>
<path id="Path_75" d="M128.916 57.7919L119.928 89.0866C119.468 90.701 118.288 92.0121 116.732 92.6391C116.043 92.7051 115.347 92.6415 114.681 92.4517L97.5089 87.5064C94.6173 86.6712 92.946 83.6516 93.7724 80.755L102.765 49.456C103.226 47.8439 104.406 46.5357 105.961 45.9121C106.65 45.8419 107.347 45.9055 108.012 46.0995L125.171 51.0619C128.057 51.8915 129.731 54.8993 128.916 57.7919Z" fill="#99DEA0"/>
<path id="Path_76" d="M128.916 57.7919L119.928 89.0866C119.468 90.701 118.288 92.0121 116.732 92.6391C116.043 92.7051 115.347 92.6415 114.681 92.4517L97.5089 87.5064C94.6173 86.6712 92.946 83.6516 93.7724 80.755L102.765 49.456C103.226 47.8439 104.406 46.5357 105.961 45.9121C106.65 45.8419 107.347 45.9055 108.012 46.0995L125.171 51.0619C128.057 51.8915 129.731 54.8993 128.916 57.7919Z" fill="#267ED7"/>
<path id="Rectangle_37" d="M102.913 59.9342L104.753 60.4531L98.133 83.9613L96.2938 83.4425L102.913 59.9342Z" fill="white"/>
<path id="Path_77" d="M100.773 84.7079L98.9346 84.1754L105.552 60.6756L107.386 61.2038L100.773 84.7079Z" fill="white"/>
<path id="Path_78" d="M103.446 85.4746L101.607 84.9464L108.225 61.4466L110.063 61.9748L103.446 85.4746Z" fill="white"/>
<path id="Rectangle_38" opacity="0.5" d="M118.926 64.5356L120.765 65.0544L114.146 88.5627L112.307 88.0439L118.926 64.5356Z" fill="black"/>
<path id="Path_79" d="M120.532 58.4096L119.639 61.6L118.549 61.2933C117.45 60.9813 116.811 59.8383 117.119 58.7376L117.715 56.6078L119.915 57.2382C120.409 57.3914 120.685 57.9156 120.532 58.4096Z" fill="#FED53D"/>
<path id="Path_80" d="M120.009 56.8463L117.809 56.2159L118.468 53.8817C118.617 53.3528 118.97 52.9048 119.449 52.6364C119.928 52.3679 120.494 52.3011 121.022 52.4505L122.154 52.77L121.166 56.2074C121.1 56.4475 120.94 56.6507 120.722 56.771C120.504 56.8913 120.247 56.9184 120.009 56.8463Z" fill="#FED53D"/>
<path id="Path_81" d="M122.094 57.8771L124.307 58.5118L123.72 60.5947C123.573 61.1248 123.221 61.5743 122.741 61.8431C122.262 62.1119 121.695 62.1777 121.167 62.0259L120.017 61.7022L120.932 58.516C121.001 58.2763 121.162 58.0738 121.38 57.9538C121.598 57.8337 121.856 57.8061 122.094 57.8771Z" fill="#FED53D"/>
<path id="Path_82" d="M125.09 55.7474L124.422 58.1157L122.209 57.481C121.716 57.3367 121.431 56.8216 121.571 56.3267L122.558 52.8892L123.66 53.2002C124.187 53.3481 124.634 53.6996 124.902 54.1773C125.171 54.655 125.238 55.2198 125.09 55.7474Z" fill="#FED53D"/>
</g>
</g>
</svg>
