<svg width="12" height="12" viewBox="0 0 12 12" fill="none" xmlns="http://www.w3.org/2000/svg">
<path d="M11.2502 0.558114C10.9252 0.233114 10.4002 0.233114 10.0752 0.558114L6.00022 4.62478L1.92522 0.54978C1.60022 0.22478 1.07522 0.22478 0.75022 0.54978C0.42522 0.87478 0.42522 1.39978 0.75022 1.72478L4.82522 5.79978L0.75022 9.87478C0.42522 10.1998 0.42522 10.7248 0.75022 11.0498C1.07522 11.3748 1.60022 11.3748 1.92522 11.0498L6.00022 6.97478L10.0752 11.0498C10.4002 11.3748 10.9252 11.3748 11.2502 11.0498C11.5752 10.7248 11.5752 10.1998 11.2502 9.87478L7.17522 5.79978L11.2502 1.72478C11.5669 1.40811 11.5669 0.87478 11.2502 0.558114Z" fill="#6D6B6E"/>
</svg>
