<svg width="18" height="17" viewBox="0 0 18 17" fill="none" xmlns="http://www.w3.org/2000/svg">
<path d="M9.744 9C10.3407 9 10.913 9.23705 11.335 9.65901C11.7569 10.081 11.994 10.6533 11.994 11.25L11.9925 12.372C12.147 15.1275 10.0245 16.5015 6.09 16.5015C2.169 16.5 0 15.1455 0 12.4125V11.25C0 10.6533 0.237053 10.081 0.65901 9.65901C1.08097 9.23705 1.65326 9 2.25 9H9.744ZM15.744 9C16.3407 9 16.913 9.23705 17.335 9.65901C17.7569 10.081 17.994 10.6533 17.994 11.25V12.0405C18.129 14.511 16.254 15.75 12.828 15.75C12.363 15.75 11.925 15.7275 11.517 15.6825C12.321 14.9385 12.7515 13.9305 12.75 12.6555L12.741 12.33L12.744 11.25C12.744 10.353 12.351 9.549 11.727 9H15.744ZM6 0C6.99456 0 7.94839 0.395088 8.65165 1.09835C9.35491 1.80161 9.75 2.75544 9.75 3.75C9.75 4.74456 9.35491 5.69839 8.65165 6.40165C7.94839 7.10491 6.99456 7.5 6 7.5C5.00544 7.5 4.05161 7.10491 3.34835 6.40165C2.64509 5.69839 2.25 4.74456 2.25 3.75C2.25 2.75544 2.64509 1.80161 3.34835 1.09835C4.05161 0.395088 5.00544 0 6 0ZM13.5 1.5C14.2956 1.5 15.0587 1.81607 15.6213 2.37868C16.1839 2.94129 16.5 3.70435 16.5 4.5C16.5 5.29565 16.1839 6.05871 15.6213 6.62132C15.0587 7.18393 14.2956 7.5 13.5 7.5C12.7044 7.5 11.9413 7.18393 11.3787 6.62132C10.8161 6.05871 10.5 5.29565 10.5 4.5C10.5 3.70435 10.8161 2.94129 11.3787 2.37868C11.9413 1.81607 12.7044 1.5 13.5 1.5Z" fill="url(#paint0_linear_333_948)"/>
<defs>
<linearGradient id="paint0_linear_333_948" x1="9.00041" y1="0" x2="9.00041" y2="16.5015" gradientUnits="userSpaceOnUse">
<stop stop-color="#e80979"/>
<stop offset="1" stop-color="#f8ce16"/>
</linearGradient>
</defs>
</svg>
