<svg width="18" height="20" viewBox="0 0 18 20" fill="none" xmlns="http://www.w3.org/2000/svg">
<path fill-rule="evenodd" clip-rule="evenodd" d="M1 2C1 1.46957 1.21882 0.960859 1.60832 0.585786C1.99782 0.210714 2.52609 0 3.07692 0L14.9231 0C15.4739 0 16.0022 0.210714 16.3917 0.585786C16.7812 0.960859 17 1.46957 17 2L18 18C18 18.5304 17.7812 19.0391 17.3917 19.4142C17.0022 19.7893 16.4739 20 15.9231 20H2.07692C1.52609 20 0.997815 19.7893 0.608317 19.4142C0.218818 19.0391 0 18.5304 0 18L1 2ZM12.4615 6C12.4615 6.88406 12.0968 7.7319 11.4477 8.35702C10.7985 8.98214 9.91806 9.33333 9 9.33333C8.08194 9.33333 7.20149 8.98214 6.55232 8.35702C5.90316 7.7319 5.53846 6.88406 5.53846 6V2.66667H4.15385V6C4.15385 7.23768 4.66442 8.42466 5.57325 9.29983C6.48208 10.175 7.71472 10.6667 9 10.6667C10.2853 10.6667 11.5179 10.175 12.4267 9.29983C13.3356 8.42466 13.8462 7.23768 13.8462 6V2.66667H12.4615V6Z" fill="url(#paint0_linear_433_2479)"/>
<defs>
<linearGradient id="paint0_linear_433_2479" x1="9" y1="0" x2="9" y2="20" gradientUnits="userSpaceOnUse">
<stop stop-color="#e80979"/>
<stop offset="1" stop-color="#f8ce16"/>
</linearGradient>
</defs>
</svg>
