<svg width="6" height="10" viewBox="0 0 6 10" fill="none" xmlns="http://www.w3.org/2000/svg">
<path d="M1.32475 9.39057C1.54371 9.39057 1.71982 9.31441 1.87214 9.1621L5.45636 5.66832C5.66104 5.46364 5.75148 5.26372 5.75624 5.01145C5.75624 4.76393 5.66104 4.5545 5.45636 4.35458L1.8769 0.85604C1.71982 0.708483 1.53895 0.632324 1.32475 0.632324C0.886839 0.632324 0.525085 0.984558 0.525085 1.42247C0.525085 1.64143 0.620284 1.84134 0.782121 2.00794L3.89035 5.01621L0.782121 8.01496C0.615524 8.18155 0.525085 8.38147 0.525085 8.60043C0.525085 9.03358 0.886839 9.39057 1.32475 9.39057Z" fill="white"/>
</svg>
