<svg width="32" height="32" viewBox="0 0 32 32" fill="none" xmlns="http://www.w3.org/2000/svg">
<path d="M30.4002 8.8001C30.4002 10.7097 29.6416 12.541 28.2914 13.8913C26.9411 15.2415 25.1098 16.0001 23.2002 16.0001C21.2906 16.0001 19.4593 15.2415 18.109 13.8913C16.7588 12.541 16.0002 10.7097 16.0002 8.8001C16.0002 6.89054 16.7588 5.05919 18.109 3.70893C19.4593 2.35867 21.2906 1.6001 23.2002 1.6001C25.1098 1.6001 26.9411 2.35867 28.2914 3.70893C29.6416 5.05919 30.4002 6.89054 30.4002 8.8001ZM24.0002 5.6001C24.0002 5.38792 23.9159 5.18444 23.7659 5.03441C23.6159 4.88438 23.4124 4.8001 23.2002 4.8001C22.988 4.8001 22.7845 4.88438 22.6345 5.03441C22.4845 5.18444 22.4002 5.38792 22.4002 5.6001V8.0001H20.0002C19.788 8.0001 19.5845 8.08438 19.4345 8.23441C19.2845 8.38444 19.2002 8.58792 19.2002 8.8001C19.2002 9.01227 19.2845 9.21575 19.4345 9.36578C19.5845 9.51581 19.788 9.6001 20.0002 9.6001H22.4002V12.0001C22.4002 12.2123 22.4845 12.4158 22.6345 12.5658C22.7845 12.7158 22.988 12.8001 23.2002 12.8001C23.4124 12.8001 23.6159 12.7158 23.7659 12.5658C23.9159 12.4158 24.0002 12.2123 24.0002 12.0001V9.6001H26.4002C26.6124 9.6001 26.8159 9.51581 26.9659 9.36578C27.1159 9.21575 27.2002 9.01227 27.2002 8.8001C27.2002 8.58792 27.1159 8.38444 26.9659 8.23441C26.8159 8.08438 26.6124 8.0001 26.4002 8.0001H24.0002V5.6001ZM23.2002 17.6001C25.3282 17.6001 27.2802 16.8449 28.8002 15.5889V19.6417C28.8002 21.9105 26.9378 23.7473 24.6402 23.7473H17.2962L10.8786 28.4849C10.538 28.736 10.1124 28.8433 9.69349 28.7837C9.27455 28.7242 8.89575 28.5025 8.6386 28.1665C8.43245 27.8949 8.32065 27.5635 8.3202 27.2225V23.7473H7.3602C5.0626 23.7473 3.2002 21.9089 3.2002 19.6417V8.9057C3.2002 6.6385 5.0626 4.8001 7.3602 4.8001H15.3602C14.6755 6.14178 14.3467 7.63674 14.4052 9.14188C14.4637 10.647 14.9076 12.112 15.6943 13.3964C16.4811 14.6809 17.5844 15.742 18.8986 16.478C20.2128 17.214 21.6939 17.6004 23.2002 17.6001Z" fill="url(#paint0_linear_17_569)"/>
<defs>
<linearGradient id="paint0_linear_17_569" x1="16.8002" y1="1.6001" x2="16.8002" y2="28.7998" gradientUnits="userSpaceOnUse">
<stop stop-color="#e80979"/>
<stop offset="1" stop-color="#f8ce16"/>
</linearGradient>
</defs>
</svg>
