<svg width="16" height="16" viewBox="0 0 16 16" fill="none" xmlns="http://www.w3.org/2000/svg">
<g clip-path="url(#clip0_806_1586)">
<mask id="mask0_806_1586" style="mask-type:alpha" maskUnits="userSpaceOnUse" x="0" y="-1" width="16" height="12">
<rect y="-1" width="16" height="12" fill="white"/>
</mask>
<g mask="url(#mask0_806_1586)">
<path fill-rule="evenodd" clip-rule="evenodd" d="M0 -1V11H16V-1H0Z" fill="#F7FCFF"/>
<mask id="mask1_806_1586" style="mask-type:alpha" maskUnits="userSpaceOnUse" x="0" y="-1" width="16" height="12">
<path fill-rule="evenodd" clip-rule="evenodd" d="M0 -1V11H16V-1H0Z" fill="white"/>
</mask>
<g mask="url(#mask1_806_1586)">
<path fill-rule="evenodd" clip-rule="evenodd" d="M0 -1V3H16V-1H0Z" fill="#E31D1C"/>
<path fill-rule="evenodd" clip-rule="evenodd" d="M0 7V11H16V7H0Z" fill="#3D58DB"/>
</g>
</g>
<rect y="-1" width="16" height="12" fill="url(#paint0_linear_806_1586)" style="mix-blend-mode:overlay"/>
<path d="M1 0H15V-2H1V0ZM15 0V16H17V0H15ZM15 16H1V18H15V16ZM1 16V4.76837e-07H-1V16H1ZM1 16H-1C-1 17.1046 -0.104569 18 1 18V16ZM15 16V18C16.1046 18 17 17.1046 17 16H15ZM15 0H17C17 -1.10457 16.1046 -2 15 -2V0ZM1 -2C-0.10457 -2 -1 -1.10457 -1 4.76837e-07H1V0V-2Z" fill="black" fill-opacity="0.1" style="mix-blend-mode:multiply"/>
</g>
<defs>
<linearGradient id="paint0_linear_806_1586" x1="16" y1="-0.999999" x2="8.04902e-07" y2="11" gradientUnits="userSpaceOnUse">
<stop stop-color="white" stop-opacity="0.3"/>
<stop offset="0.262741" stop-opacity="0.27"/>
<stop offset="0.369956" stop-color="white" stop-opacity="0.26"/>
<stop offset="0.487001" stop-opacity="0.55"/>
<stop offset="0.594445" stop-opacity="0.24"/>
<stop offset="0.736408" stop-color="white" stop-opacity="0.3"/>
<stop offset="0.901459" stop-color="#272727" stop-opacity="0.22"/>
<stop offset="1" stop-opacity="0.2"/>
</linearGradient>
<clipPath id="clip0_806_1586">
<rect width="16" height="16" rx="8" fill="white"/>
</clipPath>
</defs>
</svg>
