<svg width="41" height="40" viewBox="0 0 41 40" fill="none" xmlns="http://www.w3.org/2000/svg">
<path d="M17.625 34.8333C10.5417 33.5833 5.125 27.4167 5.125 20C5.125 11.75 11.875 5 20.125 5C28.375 5 35.125 11.75 35.125 20C35.125 27.4167 29.7083 33.5833 22.625 34.8333L21.7917 34.1667H18.4583L17.625 34.8333Z" fill="url(#paint0_linear_17_316)"/>
<path d="M25.9583 24.1666L26.625 19.9999H22.625V17.0833C22.625 15.9166 23.0417 14.9999 24.875 14.9999H26.7917V11.1666C25.7083 10.9999 24.5417 10.8333 23.4583 10.8333C20.0417 10.8333 17.625 12.9166 17.625 16.6666V19.9999H13.875V24.1666H17.625V34.7499C18.4583 34.9166 19.2917 34.9999 20.125 34.9999C20.9583 34.9999 21.7917 34.9166 22.625 34.7499V24.1666H25.9583Z" fill="white"/>
<defs>
<linearGradient id="paint0_linear_17_316" x1="20.125" y1="33.9617" x2="20.125" y2="5" gradientUnits="userSpaceOnUse">
<stop stop-color="#0062E0"/>
<stop offset="1" stop-color="#19AFFF"/>
</linearGradient>
</defs>
</svg>
