<svg width="12" height="12" viewBox="0 0 12 12" fill="none" xmlns="http://www.w3.org/2000/svg">
<path d="M0.833452 1.74008C2.18012 3.46675 4.66678 6.66675 4.66678 6.66675V10.6667C4.66678 11.0334 4.96678 11.3334 5.33345 11.3334H6.66678C7.03345 11.3334 7.33345 11.0334 7.33345 10.6667V6.66675C7.33345 6.66675 9.81345 3.46675 11.1601 1.74008C11.2365 1.64166 11.2838 1.52377 11.2964 1.39982C11.3091 1.27587 11.2868 1.15085 11.2319 1.039C11.177 0.92714 11.0918 0.832944 10.986 0.767132C10.8802 0.701321 10.758 0.66654 10.6335 0.666749H1.36012C0.806785 0.666749 0.493452 1.30008 0.833452 1.74008Z" fill="url(#paint0_linear_805_207)"/>
<defs>
<linearGradient id="paint0_linear_805_207" x1="5.99614" y1="0.666748" x2="5.99614" y2="11.3334" gradientUnits="userSpaceOnUse">
<stop stop-color="#e80979"/>
<stop offset="1" stop-color="#f8ce16"/>
</linearGradient>
</defs>
</svg>
