<svg width="32" height="32" viewBox="0 0 32 32" fill="none" xmlns="http://www.w3.org/2000/svg">
<path d="M15.021 6.8641C14.3823 6.21288 13.6206 5.6951 12.78 5.34085C11.9395 4.9866 11.0369 4.80294 10.1248 4.80056C9.21263 4.79818 8.30911 4.97712 7.46673 5.32697C6.62435 5.67683 5.8599 6.19063 5.21782 6.8385C2.51702 9.5665 2.52982 14.0001 5.24342 16.7409L15.2866 26.8849C15.7026 27.3057 16.3778 27.3057 16.7938 26.8849L26.7858 16.7985C28.0821 15.4754 28.8058 13.6956 28.8007 11.8433C28.7957 9.9911 28.0621 8.21522 26.7586 6.8993C26.1193 6.24683 25.3565 5.72805 24.5148 5.37315C23.6731 5.01826 22.7691 4.83434 21.8556 4.83211C20.9422 4.82987 20.0373 5.00937 19.1939 5.36014C18.3504 5.71092 17.5851 6.22596 16.9426 6.8753L15.989 7.8401L15.021 6.8641Z" fill="url(#paint0_linear_17_563)"/>
<defs>
<linearGradient id="paint0_linear_17_563" x1="16.0005" y1="4.80054" x2="16.0005" y2="27.2005" gradientUnits="userSpaceOnUse">
<stop stop-color="#e80979"/>
<stop offset="1" stop-color="#f8ce16"/>
</linearGradient>
</defs>
</svg>
