<svg width="32" height="32" viewBox="0 0 32 32" fill="none" xmlns="http://www.w3.org/2000/svg">
<path d="M7 4C5.67392 4 4.40215 4.52678 3.46447 5.46447C2.52678 6.40215 2 7.67392 2 9V19C2 19.6566 2.12933 20.3068 2.3806 20.9134C2.63188 21.52 3.00017 22.0712 3.46447 22.5355C4.40215 23.4732 5.67392 24 7 24H8V27.884C7.99993 28.2605 8.1083 28.6291 8.31216 28.9456C8.51601 29.2621 8.80672 29.5133 9.14953 29.6689C9.49233 29.8246 9.87272 29.8783 10.2452 29.8235C10.6177 29.7687 10.9665 29.6078 11.25 29.36L17.376 24H25C25.6566 24 26.3068 23.8707 26.9134 23.6194C27.52 23.3681 28.0712 22.9998 28.5355 22.5355C28.9998 22.0712 29.3681 21.52 29.6194 20.9134C29.8707 20.3068 30 19.6566 30 19V9C30 7.67392 29.4732 6.40215 28.5355 5.46447C27.5979 4.52678 26.3261 4 25 4H7Z" fill="url(#paint0_linear_17_567)"/>
<defs>
<linearGradient id="paint0_linear_17_567" x1="16" y1="4" x2="16" y2="29.8444" gradientUnits="userSpaceOnUse">
<stop stop-color="#e80979"/>
<stop offset="1" stop-color="#f8ce16"/>
</linearGradient>
</defs>
</svg>
