<svg width="54" height="54" viewBox="0 0 54 54" fill="none" xmlns="http://www.w3.org/2000/svg">
<circle cx="27.1794" cy="27.3674" r="26.6203" fill="#FFE3E3"/>
<g clip-path="url(#clip0_80_5246)">
<path fill-rule="evenodd" clip-rule="evenodd" d="M31.8392 30.8595C32.1613 31.1807 32.1613 31.708 31.8392 32.0292C31.5179 32.3504 30.9957 32.3504 30.6736 32.0292L27.1844 28.5367L23.6704 32.0538C23.3459 32.3751 22.8204 32.3751 22.4958 32.0538C22.1721 31.7243 22.1721 31.1972 22.4958 30.876L26.0098 27.3587L22.5205 23.8744C22.1984 23.5532 22.1984 23.0259 22.5205 22.7047C22.8409 22.3834 23.3632 22.3834 23.6852 22.7047L27.1745 26.1972L30.7148 22.6553C31.0394 22.3341 31.5641 22.3341 31.8886 22.6553C32.2123 22.9848 32.2123 23.5037 31.8886 23.8332L28.3491 27.3752L31.8392 30.8595ZM27.1794 14.1875C19.9003 14.1875 14 20.0853 14 27.3669C14 34.6486 19.9003 40.5464 27.1794 40.5464C34.4586 40.5464 40.3589 34.6486 40.3589 27.3669C40.3589 20.0853 34.4586 14.1875 27.1794 14.1875Z" fill="#F74040"/>
</g>
<defs>
<clipPath id="clip0_80_5246">
<rect width="26.3589" height="26.3589" fill="white" transform="translate(14 14.1875)"/>
</clipPath>
</defs>
</svg>
