<svg width="23" height="23" viewBox="0 0 23 23" fill="none" xmlns="http://www.w3.org/2000/svg">
<path fill-rule="evenodd" clip-rule="evenodd" d="M22.2417 13.5533V8.46249C22.2417 7.09693 22.17 5.92522 21.9524 4.94614C21.732 3.9547 21.3479 3.09526 20.6775 2.42484C20.0071 1.75443 19.1477 1.37032 18.1561 1.14998C17.1771 0.932381 16.0054 0.860634 14.6398 0.860634H8.04924C6.68369 0.860634 5.51197 0.932381 4.5329 1.14998C3.54145 1.37032 2.68201 1.75443 2.0116 2.42484C1.34118 3.09526 0.95707 3.9547 0.736729 4.94614C0.519135 5.92522 0.447388 7.09693 0.447388 8.46249V15.0531C0.447388 16.4186 0.519135 17.5904 0.736729 18.5694C0.95707 19.5609 1.34118 20.4204 2.0116 21.0908C2.68201 21.7612 3.54145 22.1453 4.5329 22.3656C5.51197 22.5832 6.68369 22.6549 8.04924 22.6549H14.6398C16.0054 22.6549 17.1771 22.5832 18.1561 22.3656C19.1477 22.1453 20.0071 21.7612 20.6775 21.0908C21.3479 20.4204 21.732 19.5609 21.9524 18.5694C22.17 17.5904 22.2417 16.4186 22.2417 15.0531V13.604C22.2421 13.5871 22.2421 13.5702 22.2417 13.5533ZM2.86425 5.41897C2.69874 6.16368 2.62682 7.14667 2.62682 8.46249V10.7727C3.41127 10.0184 4.14153 9.40126 4.84869 8.95126C5.70556 8.40601 6.58488 8.06991 7.53299 8.06991C8.4811 8.06991 9.36039 8.40601 10.2173 8.95126C11.0635 9.48971 11.9427 10.2675 12.9083 11.2331L14.6794 13.0042C15.7509 12.1209 16.8016 11.511 17.9325 11.3701C18.6775 11.2772 19.38 11.3952 20.0623 11.6704V8.46249C20.0623 7.14667 19.9904 6.16368 19.8248 5.41897C19.6621 4.68664 19.4237 4.25321 19.1364 3.96593C18.8491 3.67866 18.4157 3.44025 17.6833 3.27749C16.9387 3.11199 15.9557 3.04006 14.6398 3.04006H8.04924C6.73342 3.04006 5.75043 3.11199 5.00572 3.27749C4.27339 3.44025 3.83997 3.67866 3.55269 3.96593C3.26541 4.25321 3.02701 4.68664 2.86425 5.41897Z" fill="#919999"/>
<path fill-rule="evenodd" clip-rule="evenodd" d="M13.5244 7.39892C13.5244 6.19517 14.5002 5.21934 15.704 5.21934C16.9078 5.21934 17.8836 6.19517 17.8836 7.39892C17.8836 8.60267 16.9078 9.57851 15.704 9.57851C14.5002 9.57851 13.5244 8.60267 13.5244 7.39892Z" fill="#919999"/>
</svg>
