<svg width="22" height="23" viewBox="0 0 22 23" fill="none" xmlns="http://www.w3.org/2000/svg">
<g clip-path="url(#clip0_202_3383)">
<path d="M19.5556 3.97266H2.44444C1.79614 3.97266 1.17438 4.2302 0.715961 4.68862C0.257539 5.14704 0 5.76879 0 6.4171L0 11.9171H22V6.4171C22 5.76879 21.7425 5.14704 21.284 4.68862C20.8256 4.2302 20.2039 3.97266 19.5556 3.97266Z" fill="#DC1F26"/>
<path d="M22 17.417C22 18.0653 21.7425 18.6871 21.284 19.1455C20.8256 19.6039 20.2039 19.8614 19.5556 19.8614H2.44444C1.79614 19.8614 1.17438 19.6039 0.715961 19.1455C0.257539 18.6871 0 18.0653 0 17.417V11.917H22V17.417Z" fill="#EEEEEE"/>
</g>
<defs>
<clipPath id="clip0_202_3383">
<rect width="22" height="22" fill="white" transform="translate(0 0.916992)"/>
</clipPath>
</defs>
</svg>
