<svg width="32" height="32" viewBox="0 0 32 32" fill="none" xmlns="http://www.w3.org/2000/svg">
<path d="M19.1596 2.10405C17.6596 1.68605 16.4876 2.80405 16.0696 3.84605C15.5896 5.04605 15.1636 5.88805 14.6576 6.89405C14.2924 7.61586 13.937 8.3426 13.5916 9.07405C12.6416 11.094 11.6956 12.386 11.0056 13.164C10.7547 13.4507 10.4841 13.7194 10.1956 13.968C10.1301 14.0243 10.0627 14.0783 9.99356 14.13L9.96156 14.154L6.21756 16.36C5.40704 16.8382 4.79105 17.5868 4.47792 18.4743C4.1648 19.3617 4.17458 20.3311 4.50556 21.212L5.54556 23.98C5.7591 24.5487 6.09934 25.0613 6.54047 25.4788C6.98161 25.8964 7.51205 26.208 8.09156 26.39L18.8036 29.754C19.4374 29.9532 20.1046 30.0241 20.7662 29.9625C21.4278 29.9008 22.0704 29.708 22.6566 29.3952C23.2428 29.0823 23.7607 28.6558 24.1802 28.1405C24.5996 27.6252 24.9122 27.0315 25.0996 26.394L27.8276 17.1C28.0026 16.5035 28.0361 15.8744 27.9256 15.2627C27.815 14.6509 27.5634 14.0734 27.1907 13.5758C26.8179 13.0783 26.3344 12.6745 25.7784 12.3964C25.2224 12.1184 24.6092 11.9738 23.9876 11.974H21.2196C21.3516 11.52 21.4856 11.016 21.6096 10.494C21.8716 9.37005 22.0956 8.08805 22.0736 7.01805C22.0556 6.02405 21.9536 4.98005 21.5456 4.09405C21.1076 3.14405 20.3416 2.43005 19.1616 2.10205L19.1596 2.10405ZM9.95556 14.16L9.95156 14.162L9.95556 14.16Z" fill="url(#paint0_linear_17_565)"/>
<defs>
<linearGradient id="paint0_linear_17_565" x1="16.1197" y1="2.01416" x2="16.1197" y2="29.984" gradientUnits="userSpaceOnUse">
<stop stop-color="#e80979"/>
<stop offset="1" stop-color="#f8ce16"/>
</linearGradient>
</defs>
</svg>
