<svg width="24" height="22" viewBox="0 0 24 22" fill="none" xmlns="http://www.w3.org/2000/svg">
<g filter="url(#filter0_d_806_452)">
<path d="M21.6328 4.64688C21.3187 3.91946 20.8657 3.26029 20.2992 2.70625C19.7323 2.15056 19.064 1.70896 18.3305 1.40547C17.5699 1.08952 16.7541 0.927793 15.9305 0.929689C14.775 0.929689 13.6477 1.24609 12.668 1.84375C12.4336 1.98672 12.2109 2.14375 12 2.31485C11.7891 2.14375 11.5664 1.98672 11.332 1.84375C10.3523 1.24609 9.225 0.929689 8.06953 0.929689C7.2375 0.929689 6.43125 1.08906 5.66953 1.40547C4.93359 1.71016 4.27031 2.14844 3.70078 2.70625C3.13359 3.25966 2.6805 3.91899 2.36719 4.64688C2.04141 5.40391 1.875 6.20781 1.875 7.03516C1.875 7.81563 2.03438 8.62891 2.35078 9.45625C2.61563 10.1477 2.99531 10.8648 3.48047 11.5891C4.24922 12.7352 5.30625 13.9305 6.61875 15.1422C8.79375 17.1508 10.9477 18.5383 11.0391 18.5945L11.5945 18.9508C11.8406 19.1078 12.157 19.1078 12.4031 18.9508L12.9586 18.5945C13.05 18.5359 15.2016 17.1508 17.3789 15.1422C18.6914 13.9305 19.7484 12.7352 20.5172 11.5891C21.0023 10.8648 21.3844 10.1477 21.6469 9.45625C21.9633 8.62891 22.1227 7.81563 22.1227 7.03516C22.125 6.20781 21.9586 5.40391 21.6328 4.64688ZM12 17.0969C12 17.0969 3.65625 11.7508 3.65625 7.03516C3.65625 4.64688 5.63203 2.71094 8.06953 2.71094C9.78281 2.71094 11.2688 3.66719 12 5.06406C12.7312 3.66719 14.2172 2.71094 15.9305 2.71094C18.368 2.71094 20.3438 4.64688 20.3438 7.03516C20.3438 11.7508 12 17.0969 12 17.0969Z" fill="white"/>
</g>
<defs>
<filter id="filter0_d_806_452" x="-2.125" y="0.929672" width="28.2478" height="26.1389" filterUnits="userSpaceOnUse" color-interpolation-filters="sRGB">
<feFlood flood-opacity="0" result="BackgroundImageFix"/>
<feColorMatrix in="SourceAlpha" type="matrix" values="0 0 0 0 0 0 0 0 0 0 0 0 0 0 0 0 0 0 127 0" result="hardAlpha"/>
<feOffset dy="4"/>
<feGaussianBlur stdDeviation="2"/>
<feComposite in2="hardAlpha" operator="out"/>
<feColorMatrix type="matrix" values="0 0 0 0 0 0 0 0 0 0 0 0 0 0 0 0 0 0 0.25 0"/>
<feBlend mode="normal" in2="BackgroundImageFix" result="effect1_dropShadow_806_452"/>
<feBlend mode="normal" in="SourceGraphic" in2="effect1_dropShadow_806_452" result="shape"/>
</filter>
</defs>
</svg>
