<svg width="14" height="14" viewBox="0 0 14 14" fill="none" xmlns="http://www.w3.org/2000/svg">
<path d="M12.833 0.333252H9.49967C9.04134 0.333252 8.66634 0.708252 8.66634 1.16659C8.66634 1.62492 9.04134 1.99992 9.49967 1.99992H10.8163L7.50801 5.30825C6.77467 4.79992 5.88301 4.49992 4.91634 4.49992C2.38301 4.49992 0.333008 6.54992 0.333008 9.08325C0.333008 11.6166 2.38301 13.6666 4.91634 13.6666C7.44967 13.6666 9.49967 11.6166 9.49967 9.08325C9.49967 8.11659 9.19967 7.22492 8.69134 6.48325L11.9997 3.18325V4.49992C11.9997 4.95825 12.3747 5.33325 12.833 5.33325C13.2913 5.33325 13.6663 4.95825 13.6663 4.49992V1.16659C13.6663 0.708252 13.2913 0.333252 12.833 0.333252ZM4.91634 11.9999C3.30801 11.9999 1.99967 10.6916 1.99967 9.08325C1.99967 7.47492 3.30801 6.16658 4.91634 6.16658C6.52467 6.16658 7.83301 7.47492 7.83301 9.08325C7.83301 10.6916 6.52467 11.9999 4.91634 11.9999Z" fill="#e80979"/>
</svg>
