<svg width="65" height="64" viewBox="0 0 65 64" fill="none" xmlns="http://www.w3.org/2000/svg">
<path d="M16.1666 26.6666C13.2333 26.6666 10.8333 29.0666 10.8333 32C10.8333 34.9333 13.2333 37.3333 16.1666 37.3333C19.0999 37.3333 21.4999 34.9333 21.4999 32C21.4999 29.0666 19.0999 26.6666 16.1666 26.6666ZM48.1666 26.6666C45.2333 26.6666 42.8333 29.0666 42.8333 32C42.8333 34.9333 45.2333 37.3333 48.1666 37.3333C51.0999 37.3333 53.4999 34.9333 53.4999 32C53.4999 29.0666 51.0999 26.6666 48.1666 26.6666ZM32.1666 26.6666C29.2333 26.6666 26.8333 29.0666 26.8333 32C26.8333 34.9333 29.2333 37.3333 32.1666 37.3333C35.0999 37.3333 37.4999 34.9333 37.4999 32C37.4999 29.0666 35.0999 26.6666 32.1666 26.6666Z" fill="url(#paint0_linear_802_5121)"/>
<defs>
<linearGradient id="paint0_linear_802_5121" x1="53.4999" y1="37.3333" x2="37.176" y2="10.5883" gradientUnits="userSpaceOnUse">
<stop stop-color="#e80979"/>
<stop offset="1" stop-color="#f8ce16"/>
</linearGradient>
</defs>
</svg>
