<svg width="16" height="20" viewBox="0 0 16 20" fill="none" xmlns="http://www.w3.org/2000/svg">
<path d="M4.33579 1.5999H2.43379C1.9564 1.5999 1.49856 1.78955 1.161 2.12711C0.823431 2.46468 0.633789 2.92251 0.633789 3.3999V17.7999C0.633789 18.2773 0.823431 18.7351 1.161 19.0727C1.49856 19.4103 1.9564 19.5999 2.43379 19.5999H13.2338C13.7112 19.5999 14.169 19.4103 14.5066 19.0727C14.8441 18.7351 15.0338 18.2773 15.0338 17.7999V3.3999C15.0338 2.92251 14.8441 2.46468 14.5066 2.12711C14.169 1.78955 13.7112 1.5999 13.2338 1.5999H11.3318C11.2077 1.24881 10.9777 0.944857 10.6736 0.729936C10.3695 0.515016 10.0062 0.399707 9.63379 0.399903H6.03379C5.6614 0.399707 5.29811 0.515016 4.994 0.729936C4.68989 0.944857 4.45992 1.24881 4.33579 1.5999ZM6.03379 1.5999H9.63379C9.79292 1.5999 9.94553 1.66312 10.0581 1.77564C10.1706 1.88816 10.2338 2.04077 10.2338 2.1999C10.2338 2.35903 10.1706 2.51164 10.0581 2.62417C9.94553 2.73669 9.79292 2.7999 9.63379 2.7999H6.03379C5.87466 2.7999 5.72205 2.73669 5.60952 2.62417C5.497 2.51164 5.43379 2.35903 5.43379 2.1999C5.43379 2.04077 5.497 1.88816 5.60952 1.77564C5.72205 1.66312 5.87466 1.5999 6.03379 1.5999ZM6.63379 8.1999C6.63379 8.04077 6.697 7.88816 6.80953 7.77564C6.92205 7.66312 7.07466 7.5999 7.23379 7.5999H11.4338C11.5929 7.5999 11.7455 7.66312 11.8581 7.77564C11.9706 7.88816 12.0338 8.04077 12.0338 8.1999C12.0338 8.35903 11.9706 8.51165 11.8581 8.62417C11.7455 8.73669 11.5929 8.7999 11.4338 8.7999H7.23379C7.07466 8.7999 6.92205 8.73669 6.80953 8.62417C6.697 8.51165 6.63379 8.35903 6.63379 8.1999ZM6.63379 11.7999C6.63379 11.6408 6.697 11.4882 6.80953 11.3756C6.92205 11.2631 7.07466 11.1999 7.23379 11.1999H11.4338C11.5929 11.1999 11.7455 11.2631 11.8581 11.3756C11.9706 11.4882 12.0338 11.6408 12.0338 11.7999C12.0338 11.959 11.9706 12.1116 11.8581 12.2242C11.7455 12.3367 11.5929 12.3999 11.4338 12.3999H7.23379C7.07466 12.3999 6.92205 12.3367 6.80953 12.2242C6.697 12.1116 6.63379 11.959 6.63379 11.7999ZM6.63379 15.3999C6.63379 15.2408 6.697 15.0882 6.80953 14.9756C6.92205 14.8631 7.07466 14.7999 7.23379 14.7999H11.4338C11.5929 14.7999 11.7455 14.8631 11.8581 14.9756C11.9706 15.0882 12.0338 15.2408 12.0338 15.3999C12.0338 15.559 11.9706 15.7116 11.8581 15.8242C11.7455 15.9367 11.5929 15.9999 11.4338 15.9999H7.23379C7.07466 15.9999 6.92205 15.9367 6.80953 15.8242C6.697 15.7116 6.63379 15.559 6.63379 15.3999ZM5.43379 8.1999C5.43379 8.4386 5.33897 8.66752 5.17019 8.8363C5.0014 9.00508 4.77248 9.0999 4.53379 9.0999C4.29509 9.0999 4.06618 9.00508 3.89739 8.8363C3.72861 8.66752 3.63379 8.4386 3.63379 8.1999C3.63379 7.96121 3.72861 7.73229 3.89739 7.56351C4.06618 7.39472 4.29509 7.2999 4.53379 7.2999C4.77248 7.2999 5.0014 7.39472 5.17019 7.56351C5.33897 7.73229 5.43379 7.96121 5.43379 8.1999ZM5.43379 11.7999C5.43379 12.0386 5.33897 12.2675 5.17019 12.4363C5.0014 12.6051 4.77248 12.6999 4.53379 12.6999C4.29509 12.6999 4.06618 12.6051 3.89739 12.4363C3.72861 12.2675 3.63379 12.0386 3.63379 11.7999C3.63379 11.5612 3.72861 11.3323 3.89739 11.1635C4.06618 10.9947 4.29509 10.8999 4.53379 10.8999C4.77248 10.8999 5.0014 10.9947 5.17019 11.1635C5.33897 11.3323 5.43379 11.5612 5.43379 11.7999ZM4.53379 16.2999C4.29509 16.2999 4.06618 16.2051 3.89739 16.0363C3.72861 15.8675 3.63379 15.6386 3.63379 15.3999C3.63379 15.1612 3.72861 14.9323 3.89739 14.7635C4.06618 14.5947 4.29509 14.4999 4.53379 14.4999C4.77248 14.4999 5.0014 14.5947 5.17019 14.7635C5.33897 14.9323 5.43379 15.1612 5.43379 15.3999C5.43379 15.6386 5.33897 15.8675 5.17019 16.0363C5.0014 16.2051 4.77248 16.2999 4.53379 16.2999Z" fill="url(#paint0_linear_17_300)"/>
<defs>
<linearGradient id="paint0_linear_17_300" x1="7.83379" y1="0.399902" x2="7.83379" y2="19.5999" gradientUnits="userSpaceOnUse">
<stop stop-color="#e80979"/>
<stop offset="1" stop-color="#f8ce16"/>
</linearGradient>
</defs>
</svg>
