<svg width="17" height="18" viewBox="0 0 17 18" fill="none" xmlns="http://www.w3.org/2000/svg">
<path d="M1.91682 6.75C1.91682 4.95979 2.62798 3.2429 3.89385 1.97703C5.15972 0.711159 6.87661 0 8.66682 0C10.457 0 12.1739 0.711159 13.4398 1.97703C14.7057 3.2429 15.4168 4.95979 15.4168 6.75V9.606L16.8628 13.221C16.9084 13.3348 16.9254 13.458 16.9124 13.5799C16.8993 13.7018 16.8566 13.8187 16.7879 13.9202C16.7192 14.0217 16.6267 14.1049 16.5184 14.1624C16.4101 14.2199 16.2894 14.25 16.1668 14.25H1.16682C1.04423 14.25 0.92351 14.2199 0.815238 14.1624C0.706966 14.1049 0.614438 14.0217 0.545755 13.9202C0.477072 13.8187 0.434327 13.7018 0.421263 13.5799C0.408199 13.458 0.425214 13.3348 0.470818 13.221L1.91682 9.606V6.75ZM5.75982 15.75C5.92501 16.395 6.30059 16.9665 6.82711 17.374C7.35363 17.7815 8.00102 18.0018 8.66682 18C10.0708 18 11.2423 17.0475 11.5738 15.75H5.75982Z" fill="#BDBDBD"/>
</svg>
