<svg width="19" height="19" viewBox="0 0 19 19" fill="none" xmlns="http://www.w3.org/2000/svg">
<g clip-path="url(#clip0_202_2079)">
<path d="M9.52509 0.76123C9.52509 0.76123 2.77509 2.67373 2.77509 3.01123V9.83623C2.77509 13.2862 7.76259 16.3237 9.15009 17.1487C9.26109 17.2229 9.39159 17.2625 9.52509 17.2625C9.65858 17.2625 9.78908 17.2229 9.90009 17.1487C11.3251 16.3612 16.2751 13.2862 16.2751 9.83623V3.01123C16.2751 2.67373 9.52509 0.76123 9.52509 0.76123ZM13.0501 6.91123L8.92509 11.0362C8.85834 11.109 8.77721 11.1671 8.68683 11.2068C8.59646 11.2465 8.49881 11.267 8.40009 11.267C8.30136 11.267 8.20371 11.2465 8.11334 11.2068C8.02296 11.1671 7.94183 11.109 7.87509 11.0362L6.03759 9.19873C5.90225 9.07149 5.81381 8.90231 5.78659 8.71855C5.75936 8.5348 5.79495 8.34724 5.88759 8.18623C5.95218 8.0952 6.03627 8.01973 6.13374 7.96533C6.2312 7.91094 6.33958 7.87898 6.45097 7.87179C6.56236 7.86461 6.67394 7.88237 6.77759 7.92379C6.88124 7.96522 6.97433 8.02925 7.05009 8.11123L8.40009 9.46123L12.0001 5.86123C12.1445 5.75291 12.3232 5.70032 12.5033 5.71312C12.6833 5.72592 12.8528 5.80324 12.9804 5.9309C13.1081 6.05856 13.1854 6.22798 13.1982 6.40806C13.211 6.58815 13.1584 6.7668 13.0501 6.91123Z" fill="white"/>
</g>
<defs>
<clipPath id="clip0_202_2079">
<rect width="18" height="18" fill="white" transform="translate(0.525085 0.0112305)"/>
</clipPath>
</defs>
</svg>
