<svg width="21" height="20" viewBox="0 0 21 20" fill="none" xmlns="http://www.w3.org/2000/svg">
<path d="M13.5831 11.0001C14.5501 11.0001 15.3331 11.7841 15.3331 12.7501V17.2541C15.3331 17.7182 15.1487 18.1633 14.8205 18.4915C14.4923 18.8197 14.0472 19.0041 13.5831 19.0041H2.0831C1.61897 19.0041 1.17385 18.8197 0.845665 18.4915C0.517476 18.1633 0.333102 17.7182 0.333102 17.2541V12.7501C0.333102 11.7841 1.1171 11.0001 2.0831 11.0001H13.5831ZM19.3341 12.8961V18.2501C19.336 18.4414 19.2648 18.6263 19.1348 18.7669C19.0049 18.9074 18.8262 18.9929 18.6352 19.006C18.4443 19.019 18.2556 18.9585 18.1078 18.837C17.9599 18.7154 17.8642 18.5419 17.8401 18.3521L17.8331 18.2501V12.9071C18.3263 13.0305 18.8428 13.0267 19.3341 12.8961ZM18.5841 8.09207C19.0901 8.09207 19.5754 8.29309 19.9333 8.65091C20.2911 9.00873 20.4921 9.49404 20.4921 10.0001C20.4921 10.5061 20.2911 10.9914 19.9333 11.3492C19.5754 11.7071 19.0901 11.9081 18.5841 11.9081C18.0781 11.9081 17.5928 11.7071 17.2349 11.3492C16.8771 10.9914 16.6761 10.5061 16.6761 10.0001C16.6761 9.49404 16.8771 9.00873 17.2349 8.65091C17.5928 8.29309 18.0781 8.09207 18.5841 8.09207ZM13.5791 0.99707C14.5461 0.99707 15.3291 1.78107 15.3291 2.74707V7.25007C15.3291 7.7142 15.1447 8.15932 14.8165 8.48751C14.4883 8.8157 14.0432 9.00007 13.5791 9.00007H2.0791C1.61497 9.00007 1.16985 8.8157 0.841665 8.48751C0.513476 8.15932 0.329102 7.7142 0.329102 7.25007V2.74707C0.329139 2.30772 0.494433 1.88446 0.792149 1.56136C1.08987 1.23826 1.49822 1.03897 1.9361 1.00307L2.0791 0.99707H13.5791ZM18.5841 1.00007C18.7655 1.00011 18.9407 1.06589 19.0773 1.18521C19.2139 1.30454 19.3027 1.46933 19.3271 1.64907L19.3341 1.75007V7.09607C18.843 6.96595 18.3269 6.96251 17.8341 7.08607V1.75007C17.8341 1.55116 17.9131 1.36039 18.0538 1.21974C18.1944 1.07909 18.3852 1.00007 18.5841 1.00007Z" fill="#BDBDBD"/>
</svg>
