<svg width="18" height="18" viewBox="0 0 18 18" fill="none" xmlns="http://www.w3.org/2000/svg">
<path d="M9.19091 0.452865C4.50742 0.447359 0.686431 4.25937 0.680924 8.94287C0.675417 13.6264 4.48743 17.4473 9.17092 17.4529C13.8544 17.4584 17.6754 13.6464 17.6809 8.96285C17.6864 4.27936 13.8744 0.458372 9.19091 0.452865ZM12.8748 11.9917C12.7556 12.1956 12.543 12.3058 12.322 12.3056C12.2115 12.3054 12.101 12.2798 11.9991 12.2117L9.36594 10.6361C8.7119 10.2443 8.22841 9.38524 8.2293 8.62874L8.2334 5.14374C8.23381 4.79524 8.52315 4.50658 8.87165 4.50699C9.22015 4.5074 9.5088 4.79674 9.50839 5.14524L9.5043 8.63024C9.50394 8.93624 9.75841 9.38704 10.0217 9.54035L12.6549 11.1159C12.9607 11.2948 13.0622 11.6859 12.8748 11.9917Z" fill="#B8BEC1"/>
</svg>
