<svg width="54" height="54" viewBox="0 0 54 54" fill="none" xmlns="http://www.w3.org/2000/svg">
<circle cx="26.6894" cy="27.3674" r="26.6203" fill="#FF784D" fill-opacity="0.16"/>
<path fill-rule="evenodd" clip-rule="evenodd" d="M13.2842 27.3669C13.2842 19.9635 19.2858 13.9619 26.6891 13.9619C34.0924 13.9619 40.0941 19.9635 40.0941 27.3669C40.0941 34.7701 34.0924 40.7718 26.6891 40.7718C19.2858 40.7718 13.2842 34.7701 13.2842 27.3669ZM31.826 30.7914C31.4153 31.4074 30.583 31.5739 29.967 31.1633L26.4815 28.8395C25.7737 28.3677 25.3486 27.5734 25.3486 26.7229V26.6966V20.6644C25.3486 19.9241 25.9488 19.3239 26.6891 19.3239C27.4295 19.3239 28.0296 19.9241 28.0296 20.6644V26.6494L31.4542 28.9324C32.0701 29.3432 32.2366 30.1755 31.826 30.7914Z" fill="#F7971E"/>
</svg>
