<svg width="32" height="32" viewBox="0 0 32 32" fill="none" xmlns="http://www.w3.org/2000/svg">
<path d="M17.6002 16C17.7666 16 17.9282 16.0128 18.0882 16.0368C16.9468 16.8502 16.0166 17.9248 15.375 19.1709C14.7335 20.4169 14.3992 21.7984 14.4002 23.2C14.4002 24.5184 14.6898 25.7712 15.2098 26.8928C14.1531 27.1039 13.0777 27.2068 12.0002 27.2C6.541 27.2 3.2002 24.8864 3.2002 21.6V19.2C3.2002 18.3513 3.53734 17.5373 4.13745 16.9372C4.73757 16.3371 5.5515 16 6.4002 16H17.6002ZM27.2002 10.4C27.2002 11.4608 26.7788 12.4782 26.0286 13.2284C25.2785 13.9785 24.2611 14.4 23.2002 14.4C22.1393 14.4 21.1219 13.9785 20.3718 13.2284C19.6216 12.4782 19.2002 11.4608 19.2002 10.4C19.2002 9.33909 19.6216 8.32167 20.3718 7.57152C21.1219 6.82138 22.1393 6.39995 23.2002 6.39995C24.2611 6.39995 25.2785 6.82138 26.0286 7.57152C26.7788 8.32167 27.2002 9.33909 27.2002 10.4ZM12.0002 3.19995C12.7356 3.19995 13.4638 3.3448 14.1432 3.62623C14.8226 3.90765 15.44 4.32015 15.96 4.84015C16.48 5.36016 16.8925 5.9775 17.1739 6.65692C17.4553 7.33635 17.6002 8.06455 17.6002 8.79995C17.6002 9.53535 17.4553 10.2636 17.1739 10.943C16.8925 11.6224 16.48 12.2397 15.96 12.7597C15.44 13.2798 14.8226 13.6923 14.1432 13.9737C13.4638 14.2551 12.7356 14.4 12.0002 14.4C10.515 14.4 9.0906 13.81 8.0404 12.7597C6.99019 11.7095 6.4002 10.2852 6.4002 8.79995C6.4002 7.31474 6.99019 5.89036 8.0404 4.84015C9.0906 3.78995 10.515 3.19995 12.0002 3.19995ZM30.4002 23.2C30.4002 25.1095 29.6416 26.9409 28.2914 28.2911C26.9411 29.6414 25.1098 30.4 23.2002 30.4C21.2906 30.4 19.4593 29.6414 18.109 28.2911C16.7588 26.9409 16.0002 25.1095 16.0002 23.2C16.0002 21.2904 16.7588 19.459 18.109 18.1088C19.4593 16.7585 21.2906 16 23.2002 16C25.1098 16 26.9411 16.7585 28.2914 18.1088C29.6416 19.459 30.4002 21.2904 30.4002 23.2ZM24.0002 20C24.0002 19.7878 23.9159 19.5843 23.7659 19.4343C23.6159 19.2842 23.4124 19.2 23.2002 19.2C22.988 19.2 22.7845 19.2842 22.6345 19.4343C22.4845 19.5843 22.4002 19.7878 22.4002 20V22.4H20.0002C19.788 22.4 19.5845 22.4842 19.4345 22.6343C19.2845 22.7843 19.2002 22.9878 19.2002 23.2C19.2002 23.4121 19.2845 23.6156 19.4345 23.7656C19.5845 23.9157 19.788 24 20.0002 24H22.4002V26.4C22.4002 26.6121 22.4845 26.8156 22.6345 26.9656C22.7845 27.1157 22.988 27.2 23.2002 27.2C23.4124 27.2 23.6159 27.1157 23.7659 26.9656C23.9159 26.8156 24.0002 26.6121 24.0002 26.4V24H26.4002C26.6124 24 26.8159 23.9157 26.9659 23.7656C27.1159 23.6156 27.2002 23.4121 27.2002 23.2C27.2002 22.9878 27.1159 22.7843 26.9659 22.6343C26.8159 22.4842 26.6124 22.4 26.4002 22.4H24.0002V20Z" fill="url(#paint0_linear_17_561)"/>
<defs>
<linearGradient id="paint0_linear_17_561" x1="16.8002" y1="3.19995" x2="16.8002" y2="30.4" gradientUnits="userSpaceOnUse">
<stop stop-color="#e80979"/>
<stop offset="1" stop-color="#f8ce16"/>
</linearGradient>
</defs>
</svg>
