<svg width="65" height="64" viewBox="0 0 65 64" fill="none" xmlns="http://www.w3.org/2000/svg">
<path d="M19.1667 18.6667H45.8334V23.44C45.8334 24.64 47.2734 25.2267 48.1001 24.3734L55.5401 16.9334C56.0734 16.4 56.0734 15.5734 55.5401 15.04L48.1001 7.60004C47.9121 7.41576 47.6737 7.29126 47.4151 7.24222C47.1565 7.19317 46.8891 7.22179 46.6467 7.32445C46.4043 7.42711 46.1977 7.59923 46.053 7.81911C45.9083 8.03899 45.8318 8.2968 45.8334 8.56004V13.3334H16.5001C15.0334 13.3334 13.8334 14.5334 13.8334 16V26.6667C13.8334 28.1334 15.0334 29.3334 16.5001 29.3334C17.9667 29.3334 19.1667 28.1334 19.1667 26.6667V18.6667ZM45.8334 45.3334H19.1667V40.56C19.1667 39.36 17.7267 38.7734 16.9001 39.6267L9.46006 47.0667C8.92673 47.6 8.92673 48.4267 9.46006 48.96L16.9001 56.4C17.088 56.5843 17.3264 56.7088 17.585 56.7579C17.8436 56.8069 18.111 56.7783 18.3534 56.6756C18.5958 56.573 18.8024 56.4008 18.9471 56.181C19.0919 55.9611 19.1683 55.7033 19.1667 55.44V50.6667H48.5001C49.9667 50.6667 51.1667 49.4667 51.1667 48V37.3334C51.1667 35.8667 49.9667 34.6667 48.5001 34.6667C47.0334 34.6667 45.8334 35.8667 45.8334 37.3334V45.3334Z" fill="url(#paint0_linear_802_5117)"/>
<defs>
<linearGradient id="paint0_linear_802_5117" x1="55.9401" y1="56.7812" x2="-1.51741" y2="34.5203" gradientUnits="userSpaceOnUse">
<stop stop-color="#e80979"/>
<stop offset="1" stop-color="#f8ce16"/>
</linearGradient>
</defs>
</svg>
