<svg width="21" height="20" viewBox="0 0 21 20" fill="none" xmlns="http://www.w3.org/2000/svg">
<path d="M13.7501 11.0001C14.7171 11.0001 15.5001 11.7841 15.5001 12.7501V17.2541C15.5001 17.7182 15.3157 18.1633 14.9875 18.4915C14.6593 18.8197 14.2142 19.0041 13.7501 19.0041H2.25009C1.78596 19.0041 1.34085 18.8197 1.01266 18.4915C0.684468 18.1633 0.500094 17.7182 0.500094 17.2541V12.7501C0.500094 11.7841 1.28409 11.0001 2.25009 11.0001H13.7501ZM19.5011 12.8961V18.2501C19.503 18.4414 19.4318 18.6263 19.3018 18.7669C19.1719 18.9074 18.9932 18.9929 18.8022 19.006C18.6113 19.019 18.4226 18.9585 18.2748 18.837C18.1269 18.7154 18.0312 18.5419 18.0071 18.3521L18.0001 18.2501V12.9071C18.4933 13.0305 19.0098 13.0267 19.5011 12.8961V12.8961ZM18.7511 8.09207C19.2571 8.09207 19.7424 8.29309 20.1003 8.65091C20.4581 9.00873 20.6591 9.49404 20.6591 10.0001C20.6591 10.5061 20.4581 10.9914 20.1003 11.3492C19.7424 11.7071 19.2571 11.9081 18.7511 11.9081C18.2451 11.9081 17.7598 11.7071 17.4019 11.3492C17.0441 10.9914 16.8431 10.5061 16.8431 10.0001C16.8431 9.49404 17.0441 9.00873 17.4019 8.65091C17.7598 8.29309 18.2451 8.09207 18.7511 8.09207ZM13.7461 0.99707C14.7131 0.99707 15.4961 1.78107 15.4961 2.74707V7.25007C15.4961 7.7142 15.3117 8.15932 14.9835 8.48751C14.6553 8.8157 14.2102 9.00007 13.7461 9.00007H2.24609C1.78196 9.00007 1.33685 8.8157 1.00866 8.48751C0.680468 8.15932 0.496094 7.7142 0.496094 7.25007V2.74707C0.496131 2.30772 0.661425 1.88446 0.959141 1.56136C1.25686 1.23826 1.66521 1.03897 2.10309 1.00307L2.24609 0.99707H13.7461V0.99707ZM18.7511 1.00007C18.9325 1.00011 19.1077 1.06589 19.2443 1.18521C19.3809 1.30454 19.4697 1.46933 19.4941 1.64907L19.5011 1.75007V7.09607C19.01 6.96595 18.4939 6.96251 18.0011 7.08607V1.75007C18.0011 1.55116 18.0801 1.36039 18.2208 1.21974C18.3614 1.07909 18.5522 1.00007 18.7511 1.00007V1.00007Z" fill="url(#paint0_linear_17_290)"/>
<defs>
<linearGradient id="paint0_linear_17_290" x1="10.5776" y1="0.99707" x2="10.5776" y2="19.0077" gradientUnits="userSpaceOnUse">
<stop stop-color="#e80979"/>
<stop offset="1" stop-color="#f8ce16"/>
</linearGradient>
</defs>
</svg>
