<svg width="25" height="25" viewBox="0 0 25 25" fill="none" xmlns="http://www.w3.org/2000/svg">
<path fill-rule="evenodd" clip-rule="evenodd" d="M5.29029 5.28012C9.24377 1.33222 15.6705 1.3742 19.6481 5.35185C23.6275 9.33122 23.6678 15.7618 19.7148 19.7148C15.7617 23.6678 9.33118 23.6275 5.35181 19.6481C2.99363 17.29 2.01983 14.0728 2.43799 11.0221C2.49658 10.5946 2.89062 10.2956 3.31809 10.3542C3.74557 10.4128 4.0446 10.8068 3.98602 11.2343C3.63187 13.8179 4.45606 16.5427 6.45667 18.5433C9.83633 21.923 15.2775 21.9423 18.6099 18.6099C21.9423 15.2775 21.9229 9.83638 18.5432 6.45671C15.1653 3.07876 9.72801 3.0577 6.39516 6.38497L7.17401 6.38889C7.60548 6.39105 7.95349 6.74258 7.95132 7.17405C7.94916 7.60552 7.59762 7.95353 7.16616 7.95136L4.51454 7.93804C4.08613 7.93589 3.73938 7.58913 3.73723 7.16073L3.72391 4.5091C3.72173 4.07765 4.06975 3.72612 4.50122 3.72394C4.93269 3.72177 5.28422 4.06979 5.28638 4.50126L5.29029 5.28012Z" fill="#00AA12"/>
<path opacity="0.66" d="M12.5 7.55206C12.9315 7.55206 13.2813 7.90184 13.2813 8.33331V12.1763L15.6566 14.5518C15.9617 14.8569 15.9617 15.3514 15.6566 15.6565C15.3515 15.9616 14.8569 15.9616 14.5518 15.6565L12.0239 13.1287C11.8285 12.9333 11.7188 12.6684 11.7188 12.3921V8.33331C11.7188 7.90184 12.0685 7.55206 12.5 7.55206Z" fill="#00AA12"/>
</svg>
