<svg width="26" height="26" viewBox="0 0 26 26" fill="none" xmlns="http://www.w3.org/2000/svg">
<path d="M19.0183 17.1533C18.3146 17.1533 17.6851 17.4357 17.2036 17.8781L10.6023 13.9721C10.6486 13.7556 10.6856 13.5392 10.6856 13.3133C10.6856 13.0874 10.6486 12.8709 10.6023 12.6544L17.1296 8.78615C17.6295 9.25675 18.2869 9.54852 19.0183 9.54852C20.5552 9.54852 21.7959 8.28732 21.7959 6.72494C21.7959 5.16256 20.5552 3.90137 19.0183 3.90137C17.4814 3.90137 16.2407 5.16256 16.2407 6.72494C16.2407 6.95083 16.2778 7.1673 16.3241 7.38378L9.7968 11.2521C9.29683 10.7815 8.63948 10.4897 7.90805 10.4897C6.37114 10.4897 5.13049 11.7509 5.13049 13.3133C5.13049 14.8757 6.37114 16.1369 7.90805 16.1369C8.63948 16.1369 9.29683 15.8451 9.7968 15.3745L16.3889 19.2898C16.3426 19.4875 16.3148 19.6946 16.3148 19.9016C16.3148 21.4169 17.5277 22.6499 19.0183 22.6499C20.5089 22.6499 21.7218 21.4169 21.7218 19.9016C21.7218 18.3863 20.5089 17.1533 19.0183 17.1533Z" fill="#494A4A"/>
</svg>
