<svg width="21" height="20" viewBox="0 0 21 20" fill="none" xmlns="http://www.w3.org/2000/svg">
<path d="M9.575 1.13337L3.74167 3.72504C3.14167 3.99171 2.75 4.59171 2.75 5.25004V9.16671C2.75 13.7917 5.95 18.1167 10.25 19.1667C14.55 18.1167 17.75 13.7917 17.75 9.16671V5.25004C17.75 4.59171 17.3583 3.99171 16.7583 3.72504L10.925 1.13337C10.5 0.941707 10 0.941707 9.575 1.13337ZM7.99167 13.575L5.83333 11.4167C5.75618 11.3396 5.69498 11.248 5.65323 11.1472C5.61147 11.0464 5.58998 10.9383 5.58998 10.8292C5.58998 10.7201 5.61147 10.6121 5.65323 10.5113C5.69498 10.4104 5.75618 10.3189 5.83333 10.2417C5.91048 10.1646 6.00208 10.1034 6.10288 10.0616C6.20368 10.0198 6.31172 9.99836 6.42083 9.99836C6.52994 9.99836 6.63798 10.0198 6.73879 10.0616C6.83959 10.1034 6.93118 10.1646 7.00833 10.2417L8.58333 11.8084L13.4833 6.90837C13.5605 6.83122 13.6521 6.77002 13.7529 6.72827C13.8537 6.68651 13.9617 6.66502 14.0708 6.66502C14.1799 6.66502 14.288 6.68651 14.3888 6.72827C14.4896 6.77002 14.5812 6.83122 14.6583 6.90837C14.7355 6.98553 14.7967 7.07712 14.8384 7.17792C14.8802 7.27872 14.9017 7.38676 14.9017 7.49587C14.9017 7.60498 14.8802 7.71302 14.8384 7.81383C14.7967 7.91463 14.7355 8.00622 14.6583 8.08337L9.16667 13.575C9.08957 13.6523 8.998 13.7136 8.89719 13.7554C8.79638 13.7972 8.68831 13.8187 8.57917 13.8187C8.47003 13.8187 8.36196 13.7972 8.26115 13.7554C8.16034 13.7136 8.06876 13.6523 7.99167 13.575Z" fill="white"/>
</svg>
