<svg width="65" height="64" viewBox="0 0 65 64" fill="none" xmlns="http://www.w3.org/2000/svg">
<path d="M52.7265 26.6667C52.4635 27.0554 52.3077 27.5067 52.2749 27.9749C52.2421 28.4432 52.3335 28.9117 52.5398 29.3333C53.2017 30.8781 53.6675 32.4996 53.9265 34.16C54.613 38.4537 53.971 42.8547 52.0865 46.7733C51.8577 47.2032 51.5155 47.5621 51.0971 47.8113C50.6787 48.0604 50.2001 48.1902 49.7132 48.1867H15.9798C15.4902 48.1877 15.0097 48.0539 14.591 47.7999C14.1724 47.5458 13.8318 47.1815 13.6065 46.7467C11.8995 43.2838 11.1642 39.4227 11.479 35.5749C11.7938 31.727 13.1468 28.0367 15.3939 24.8973C17.641 21.758 20.6979 19.2872 24.2387 17.7485C27.7796 16.2098 31.6716 15.6608 35.4998 16.16C37.4369 16.3877 39.3315 16.8905 41.1265 17.6533C41.5481 17.8597 42.0167 17.9511 42.4849 17.9183C42.9532 17.8855 43.4044 17.7297 43.7932 17.4667C44.1982 17.1999 44.5228 16.8276 44.732 16.3901C44.9412 15.9525 45.0271 15.4662 44.9804 14.9834C44.9338 14.5007 44.7564 14.0398 44.4673 13.6504C44.1783 13.2609 43.7884 12.9577 43.3398 12.7733C38.1884 10.5644 32.4718 10.0349 27.0023 11.26C21.5327 12.4851 16.5882 15.4025 12.8712 19.5978C9.15416 23.7931 6.85358 29.053 6.29624 34.6303C5.73891 40.2077 6.95316 45.8188 9.76651 50.6667C10.2319 51.4727 10.9001 52.143 11.7047 52.6108C12.5094 53.0786 13.4224 53.3277 14.3532 53.3333H51.2865C52.2263 53.3371 53.1504 53.0924 53.9652 52.6241C54.78 52.1558 55.4566 51.4806 55.9265 50.6667C57.9862 47.0972 59.1905 43.0989 59.445 38.9857C59.6995 34.8724 58.9972 30.7562 57.3932 26.96C57.19 26.5274 56.8743 26.1573 56.4791 25.8885C56.0839 25.6197 55.6237 25.462 55.1467 25.432C54.6697 25.4021 54.1933 25.5008 53.7676 25.718C53.3418 25.9352 52.9822 26.2629 52.7265 26.6667Z" fill="url(#paint0_linear_802_5112)"/>
<path d="M29.0732 33.5733C28.0725 34.5741 27.5103 35.9314 27.5103 37.3466C27.5103 38.0474 27.6483 38.7413 27.9165 39.3888C28.1846 40.0362 28.5777 40.6245 29.0732 41.12C29.5687 41.6155 30.157 42.0086 30.8044 42.2767C31.4519 42.5449 32.1458 42.6829 32.8466 42.6829C34.2618 42.6829 35.6191 42.1207 36.6199 41.12L51.7132 18.48L29.0732 33.5733Z" fill="url(#paint1_linear_802_5112)"/>
<defs>
<linearGradient id="paint0_linear_802_5112" x1="59.4959" y1="53.3334" x2="-0.0971934" y2="22.8593" gradientUnits="userSpaceOnUse">
<stop stop-color="#e80979"/>
<stop offset="1" stop-color="#f8ce16"/>
</linearGradient>
<linearGradient id="paint1_linear_802_5112" x1="51.7132" y1="42.683" x2="22.4982" y2="30.7165" gradientUnits="userSpaceOnUse">
<stop stop-color="#e80979"/>
<stop offset="1" stop-color="#f8ce16"/>
</linearGradient>
</defs>
</svg>
