<svg width="28" height="27" viewBox="0 0 28 27" fill="none" xmlns="http://www.w3.org/2000/svg">
<path d="M22.494 22.7065L22.4941 22.7069C22.9602 24.711 20.7899 26.3026 19.0159 25.2291C19.0158 25.229 19.0157 25.229 19.0156 25.2289L13.9991 22.1948L8.98457 25.2156C8.98438 25.2157 8.98419 25.2158 8.984 25.2159C7.21001 26.2891 5.04005 24.6976 5.50609 22.6936L5.50619 22.6931L6.83592 16.9874L2.39893 13.1428C2.39881 13.1427 2.3987 13.1426 2.39858 13.1425C0.839949 11.7928 1.66996 9.22323 3.7311 9.05682L9.56853 8.5613L11.8514 3.18639C11.8517 3.18567 11.852 3.18495 11.8523 3.18424C12.6495 1.28974 15.3509 1.28983 16.148 3.1845C16.1483 3.18513 16.1486 3.18576 16.1488 3.18639L18.4322 8.57468L24.2661 9.06991C24.2671 9.06999 24.2681 9.07007 24.2691 9.07015C26.3304 9.23658 27.1604 11.8065 25.6013 13.1562M22.494 22.7065L24.9468 12.4001M22.494 22.7065L21.1643 17.0007M22.494 22.7065L20.0534 16.6401M25.6013 13.1562L24.9468 12.4001M25.6013 13.1562L25.6016 13.1559L24.9468 12.4001M25.6013 13.1562L21.1643 17.0007M24.9468 12.4001L20.0534 16.6401M21.1643 17.0007L21.0273 16.4131L20.0534 16.6401M21.1643 17.0007L20.7083 17.3959L20.0534 16.6401" fill="url(#paint0_linear_333_930)" stroke="#FFC972" stroke-width="2"/>
<defs>
<linearGradient id="paint0_linear_333_930" x1="14.0001" y1="2.76343" x2="14.0001" y2="24.5712" gradientUnits="userSpaceOnUse">
<stop stop-color="#e80979"/>
<stop offset="1" stop-color="#f8ce16"/>
</linearGradient>
</defs>
</svg>
