<svg width="54" height="54" viewBox="0 0 54 54" fill="none" xmlns="http://www.w3.org/2000/svg">
<circle cx="26.6882" cy="27.2619" r="26.6203" fill="#00AA12" fill-opacity="0.1"/>
<path d="M26.3995 14.2754C19.4148 14.2754 13.7231 19.9671 13.7231 26.9517C13.7231 33.9364 19.4148 39.628 26.3995 39.628C33.3841 39.628 39.0758 33.9364 39.0758 26.9517C39.0758 19.9671 33.3841 14.2754 26.3995 14.2754ZM32.4588 24.0362L25.2713 31.2236C25.0938 31.4011 24.853 31.5025 24.5994 31.5025C24.3459 31.5025 24.1051 31.4011 23.9276 31.2236L20.3402 27.6362C19.9726 27.2686 19.9726 26.6602 20.3402 26.2925C20.7078 25.9249 21.3163 25.9249 21.6839 26.2925L24.5994 29.2081L31.1151 22.6925C31.4827 22.3249 32.0911 22.3249 32.4588 22.6925C32.8264 23.0601 32.8264 23.6559 32.4588 24.0362Z" fill="#00AA12"/>
</svg>
