<svg width="154" height="154" viewBox="0 0 154 154" fill="none" xmlns="http://www.w3.org/2000/svg">
<path fill-rule="evenodd" clip-rule="evenodd" d="M77.0001 135.52C114.423 135.52 144.76 105.183 144.76 67.76C144.76 30.3372 114.423 0 77.0001 0C39.5773 0 9.24011 30.3372 9.24011 67.76C9.24011 88.8315 18.8583 107.657 33.944 120.084C33.968 120.104 33.9466 120.143 33.9172 120.133C33.899 120.126 33.8802 120.14 33.8802 120.159V139.913C33.8802 146.374 40.6902 150.567 46.4597 147.659L68.8502 136.372C70.289 135.647 71.9007 135.35 73.51 135.432C74.6659 135.49 75.8296 135.52 77.0001 135.52Z" fill="white"/>
<path fill-rule="evenodd" clip-rule="evenodd" d="M101.509 45.2208C103.805 46.9819 104.244 50.2698 102.489 52.5712L76.4419 86.7219C75.5235 87.9261 74.1314 88.6744 72.6228 88.7748C71.1142 88.8752 69.6357 88.3179 68.5666 87.246L52.0347 70.6706C49.9902 68.6207 49.9902 65.3028 52.0347 63.253C54.0869 61.1954 57.4198 61.1954 59.4719 63.253L71.7481 75.5615L94.1395 46.2034C95.901 43.8937 99.2033 43.4534 101.509 45.2208Z" fill="#00AA12"/>
</svg>
