<svg width="29" height="29" viewBox="0 0 29 29" fill="none" xmlns="http://www.w3.org/2000/svg">
<path d="M25.0729 14.5C25.0729 13.9995 24.6672 13.5937 24.1667 13.5937C23.6662 13.5937 23.2604 13.9995 23.2604 14.5C23.2604 19.3383 19.3383 23.2604 14.5 23.2604C9.66173 23.2604 5.7396 19.3383 5.7396 14.5C5.7396 13.9995 5.33384 13.5937 4.83335 13.5937C4.33286 13.5937 3.9271 13.9995 3.9271 14.5C3.9271 20.3393 8.66075 25.0729 14.5 25.0729C20.3393 25.0729 25.0729 20.3393 25.0729 14.5Z" fill="#00AA12"/>
<path opacity="0.66" d="M17.4842 12.6509C17.8381 12.2969 18.4119 12.2969 18.7658 12.6509C19.1197 13.0048 19.1197 13.5785 18.7658 13.9324L15.1408 17.5574C14.7869 17.9113 14.2131 17.9113 13.8592 17.5574L10.2342 13.9324C9.8803 13.5785 9.8803 13.0048 10.2342 12.6509C10.5881 12.2969 11.1619 12.2969 11.5158 12.6509L13.5938 14.7287L13.5938 4.83331C13.5938 4.33281 13.9995 3.92706 14.5 3.92706C15.0005 3.92706 15.4063 4.33281 15.4063 4.83331L15.4063 14.7287L17.4842 12.6509Z" fill="#00AA12"/>
</svg>
