<svg width="21" height="20" viewBox="0 0 21 20" fill="none" xmlns="http://www.w3.org/2000/svg">
<path d="M19.6712 9.99967C19.6712 15.0623 15.5671 19.1663 10.5046 19.1663C5.44195 19.1663 1.33789 15.0623 1.33789 9.99967C1.33789 4.93707 5.44195 0.833008 10.5046 0.833008C15.5671 0.833008 19.6712 4.93707 19.6712 9.99967ZM3.01025 9.99967C3.01025 14.1387 6.36556 17.494 10.5046 17.494C14.6436 17.494 17.9989 14.1387 17.9989 9.99967C17.9989 5.86068 14.6436 2.50537 10.5046 2.50537C6.36556 2.50537 3.01025 5.86068 3.01025 9.99967Z" fill="#4A4A4A"/>
<path d="M10.5052 4.16699C10.045 4.16699 9.67188 4.54008 9.67188 5.00033V10.3892C9.67188 10.3892 9.67188 10.6065 9.77746 10.7699C9.84813 10.9085 9.95829 11.0289 10.103 11.1125L13.9529 13.3352C14.3515 13.5653 14.8611 13.4287 15.0912 13.0302C15.3213 12.6316 15.1848 12.1219 14.7862 11.8918L11.3385 9.90133V5.00033C11.3385 4.54009 10.9655 4.16699 10.5052 4.16699Z" fill="#4A4A4A"/>
</svg>
