<svg width="21" height="20" viewBox="0 0 21 20" fill="none" xmlns="http://www.w3.org/2000/svg">
<path d="M10.167 0C4.64699 0 0.166992 4.48 0.166992 10C0.166992 15.52 4.64699 20 10.167 20C15.687 20 20.167 15.52 20.167 10C20.167 4.48 15.687 0 10.167 0ZM14.167 11H11.167V14C11.167 14.55 10.717 15 10.167 15C9.61699 15 9.16699 14.55 9.16699 14V11H6.16699C5.61699 11 5.16699 10.55 5.16699 10C5.16699 9.45 5.61699 9 6.16699 9H9.16699V6C9.16699 5.45 9.61699 5 10.167 5C10.717 5 11.167 5.45 11.167 6V9H14.167C14.717 9 15.167 9.45 15.167 10C15.167 10.55 14.717 11 14.167 11Z" fill="url(#paint0_linear_403_529)"/>
<defs>
<linearGradient id="paint0_linear_403_529" x1="10.167" y1="0" x2="10.167" y2="20" gradientUnits="userSpaceOnUse">
<stop stop-color="#e80979"/>
<stop offset="1" stop-color="#f8ce16"/>
</linearGradient>
</defs>
</svg>
