<svg width="23" height="22" viewBox="0 0 23 22" fill="none" xmlns="http://www.w3.org/2000/svg">
<path d="M13.7412 17.4627L15.1345 18.856L17.9212 16.0693" stroke="#4A4A4A" stroke-width="1.5" stroke-linecap="round" stroke-linejoin="round"/>
<path d="M11.6523 9.96384C11.5606 9.95467 11.4506 9.95467 11.3498 9.96384C9.16808 9.89051 7.43558 8.10301 7.43558 5.90301C7.42641 3.65717 9.25058 1.83301 11.4964 1.83301C13.7423 1.83301 15.5664 3.65717 15.5664 5.90301C15.5664 8.10301 13.8248 9.89051 11.6523 9.96384Z" stroke="#4A4A4A" stroke-width="1.5" stroke-linecap="round" stroke-linejoin="round"/>
<path d="M11.4964 19.9929C9.82811 19.9929 8.16898 19.5712 6.90398 18.7279C4.68565 17.2429 4.68565 14.8229 6.90398 13.347C9.42482 11.6604 13.5589 11.6604 16.0798 13.347" stroke="#4A4A4A" stroke-width="1.5" stroke-linecap="round" stroke-linejoin="round"/>
</svg>
