<svg width="32" height="32" viewBox="0 0 32 32" fill="none" xmlns="http://www.w3.org/2000/svg">
<path d="M15.9997 5.33325C9.33301 5.33325 3.63967 9.47992 1.33301 15.3333C3.63967 21.1866 9.33301 25.3333 15.9997 25.3333C22.6663 25.3333 28.3597 21.1866 30.6663 15.3333C28.3597 9.47992 22.6663 5.33325 15.9997 5.33325ZM15.9997 21.9999C12.3197 21.9999 9.33301 19.0133 9.33301 15.3333C9.33301 11.6533 12.3197 8.66659 15.9997 8.66659C19.6797 8.66659 22.6663 11.6533 22.6663 15.3333C22.6663 19.0133 19.6797 21.9999 15.9997 21.9999ZM15.9997 11.3333C13.7863 11.3333 11.9997 13.1199 11.9997 15.3333C11.9997 17.5466 13.7863 19.3333 15.9997 19.3333C18.213 19.3333 19.9997 17.5466 19.9997 15.3333C19.9997 13.1199 18.213 11.3333 15.9997 11.3333Z" fill="url(#paint0_linear_17_571)"/>
<defs>
<linearGradient id="paint0_linear_17_571" x1="15.9997" y1="5.33325" x2="15.9997" y2="25.3333" gradientUnits="userSpaceOnUse">
<stop stop-color="#e80979"/>
<stop offset="1" stop-color="#f8ce16"/>
</linearGradient>
</defs>
</svg>
