<svg width="30" height="30" viewBox="0 0 30 30" fill="none" xmlns="http://www.w3.org/2000/svg">
<path d="M18.75 7.68768H7.5C4.7375 7.68768 2.5 9.92518 2.5 12.6876V8.17512C2.5 5.62512 4.5625 3.56262 7.1125 3.56262H14.1375C16.6875 3.56262 18.75 5.13768 18.75 7.68768Z" fill="#00AA12"/>
<path opacity="0.4" d="M21.85 15.2499C21.225 15.8624 20.925 16.7874 21.175 17.7249C21.4875 18.8874 22.6375 19.6249 23.8375 19.6249H25V21.4374C25 24.1999 22.7625 26.4374 20 26.4374H7.5C4.7375 26.4374 2.5 24.1999 2.5 21.4374V12.6874C2.5 9.92488 4.7375 7.68738 7.5 7.68738H20C22.75 7.68738 25 9.93738 25 12.6874V14.4999H23.65C22.95 14.4999 22.3125 14.7749 21.85 15.2499Z" fill="#00AA12"/>
<path d="M27.5003 15.7751V18.3501C27.5003 19.0501 26.9253 19.6251 26.2128 19.6251H23.8003C22.4503 19.6251 21.2128 18.6376 21.1003 17.2876C21.0253 16.5001 21.3253 15.7626 21.8503 15.2501C22.3128 14.7751 22.9503 14.5001 23.6503 14.5001H26.2128C26.9253 14.5001 27.5003 15.0751 27.5003 15.7751Z" fill="#00AA12"/>
<path d="M16.25 14.8749H8.75C8.2375 14.8749 7.8125 14.4499 7.8125 13.9374C7.8125 13.4249 8.2375 12.9999 8.75 12.9999H16.25C16.7625 12.9999 17.1875 13.4249 17.1875 13.9374C17.1875 14.4499 16.7625 14.8749 16.25 14.8749Z" fill="#00AA12"/>
</svg>
