<svg width="7" height="12" viewBox="0 0 7 12" fill="none" xmlns="http://www.w3.org/2000/svg">
<path d="M1.1966 11.5724C1.47691 11.5724 1.70238 11.4749 1.89738 11.2799L6.48598 6.80705C6.74801 6.54502 6.86379 6.28908 6.86988 5.96611C6.86988 5.64924 6.74801 5.38111 6.48598 5.12518L1.90348 0.64627C1.70238 0.457363 1.47082 0.359863 1.1966 0.359863C0.635977 0.359863 0.172852 0.810801 0.172852 1.37143C0.172852 1.65174 0.294727 1.90768 0.501914 2.12096L4.48113 5.97221L0.501914 9.81127C0.288633 10.0246 0.172852 10.2805 0.172852 10.5608C0.172852 11.1153 0.635977 11.5724 1.1966 11.5724Z" fill="#00AA12"/>
</svg>
