<svg width="15" height="15" viewBox="0 0 15 15" fill="none" xmlns="http://www.w3.org/2000/svg">
<path fill-rule="evenodd" clip-rule="evenodd" d="M8.88745 2.32796C9.57277 1.64263 10.6839 1.64263 11.3692 2.32796L12.1965 3.15521C12.8818 3.84053 12.8818 4.95166 12.1965 5.63698L6.1173 11.7162C6.03563 11.7978 5.93163 11.8535 5.81839 11.8761L2.71618 12.4966C2.30687 12.5784 1.946 12.2176 2.02786 11.8083L2.6483 8.70605C2.67095 8.5928 2.72661 8.4888 2.80827 8.40714L8.88745 2.32796ZM10.542 3.15521L11.3692 3.98247C11.5977 4.21091 11.5977 4.58128 11.3692 4.80972L10.542 5.63698L8.88745 3.98247L9.71471 3.15521C9.94315 2.92677 10.3135 2.92677 10.542 3.15521ZM8.0602 4.80972L3.76076 9.10916L3.34714 11.1773L5.41528 10.7637L9.71471 6.46424L8.0602 4.80972Z" fill="#00AA12"/>
</svg>
