<svg width="39" height="39" viewBox="0 0 39 39" fill="none" xmlns="http://www.w3.org/2000/svg">
<circle cx="19.2952" cy="19.5999" r="19.2" fill="#E5F6E7" fill-opacity="0.56"/>
<path d="M27.0704 24.4362C27.0704 24.727 27.0058 25.0258 26.8685 25.3166C26.7312 25.6074 26.5535 25.882 26.3193 26.1404C25.9235 26.5766 25.4873 26.8916 24.9946 27.0935C24.51 27.2954 23.985 27.4004 23.4196 27.4004C22.5958 27.4004 21.7154 27.2066 20.7866 26.8108C19.8577 26.415 18.9289 25.882 18.0081 25.2116C17.0793 24.5331 16.1989 23.782 15.3589 22.95C14.5269 22.11 13.7758 21.2297 13.1054 20.3089C12.4431 19.3881 11.91 18.4674 11.5223 17.5547C11.1346 16.6339 10.9408 15.7535 10.9408 14.9135C10.9408 14.3643 11.0377 13.8393 11.2316 13.3547C11.4254 12.862 11.7323 12.4097 12.1604 12.0058C12.6773 11.497 13.2427 11.2466 13.8404 11.2466C14.0666 11.2466 14.2927 11.295 14.4946 11.392C14.7046 11.4889 14.8904 11.6343 15.0358 11.8443L16.9096 14.4854C17.055 14.6874 17.16 14.8731 17.2327 15.0508C17.3054 15.2204 17.3458 15.39 17.3458 15.5435C17.3458 15.7374 17.2893 15.9312 17.1762 16.117C17.0712 16.3027 16.9177 16.4966 16.7239 16.6904L16.11 17.3285C16.0212 17.4174 15.9808 17.5224 15.9808 17.6516C15.9808 17.7162 15.9889 17.7727 16.005 17.8374C16.0293 17.902 16.0535 17.9504 16.0696 17.9989C16.215 18.2654 16.4654 18.6127 16.8208 19.0327C17.1843 19.4527 17.5719 19.8808 17.9919 20.3089C18.4281 20.737 18.8481 21.1327 19.2762 21.4962C19.6962 21.8516 20.0435 22.0939 20.3181 22.2393C20.3585 22.2554 20.4069 22.2797 20.4635 22.3039C20.5281 22.3281 20.5927 22.3362 20.6654 22.3362C20.8027 22.3362 20.9077 22.2877 20.9966 22.1989L21.6104 21.5931C21.8123 21.3912 22.0062 21.2377 22.1919 21.1408C22.3777 21.0277 22.5635 20.9712 22.7654 20.9712C22.9189 20.9712 23.0804 21.0035 23.2581 21.0762C23.4358 21.1489 23.6216 21.2539 23.8235 21.3912L26.4969 23.2893C26.7069 23.4347 26.8523 23.6043 26.9412 23.8062C27.0219 24.0081 27.0704 24.21 27.0704 24.4362Z" stroke="#00AA12" stroke-width="1.50418" stroke-linecap="round" stroke-linejoin="round"/>
<path d="M24.2678 16.9002C24.2678 16.4155 23.8882 15.6725 23.3228 15.0667C22.8059 14.5094 22.1194 14.0732 21.4409 14.0732" stroke="#69E476" stroke-width="0.96" stroke-linecap="round" stroke-linejoin="round"/>
<path d="M27.0948 16.9004C27.0948 13.7747 24.5667 11.2466 21.4409 11.2466" stroke="#69E476" stroke-width="0.96" stroke-linecap="round" stroke-linejoin="round"/>
</svg>
