<svg width="39" height="39" viewBox="0 0 39 39" fill="none" xmlns="http://www.w3.org/2000/svg">
<circle cx="19.2952" cy="19.8001" r="19.2" fill="#E5F6E7" fill-opacity="0.56"/>
<path d="M19.2952 28.5503C24.1277 28.5503 28.0452 24.6328 28.0452 19.8003C28.0452 14.9678 24.1277 11.0503 19.2952 11.0503C14.4627 11.0503 10.5452 14.9678 10.5452 19.8003C10.5452 24.6328 14.4627 28.5503 19.2952 28.5503Z" stroke="#00AA12" stroke-width="1.5"/>
<path d="M19.2952 24.1753V18.9253" stroke="#00AA12" stroke-width="1.5" stroke-linecap="round"/>
<path d="M19.2952 14.8477C19.9379 14.8477 20.459 15.3687 20.459 16.0115C20.459 16.6542 19.9379 17.1753 19.2952 17.1753C18.6524 17.1753 18.1313 16.6542 18.1313 16.0115C18.1313 15.3687 18.6524 14.8477 19.2952 14.8477Z" fill="#00AA12"/>
</svg>
