<svg width="39" height="40" viewBox="0 0 39 40" fill="none" xmlns="http://www.w3.org/2000/svg">
<circle cx="19.3729" cy="19.9661" r="19.2" fill="#E5F6E7" fill-opacity="0.56"/>
<g clip-path="url(#clip0_50_4527)">
<path fill-rule="evenodd" clip-rule="evenodd" d="M18.3995 11.0065C19.021 10.7309 19.7245 10.7309 20.346 11.0065L27.539 14.196C29.1854 14.926 28.6814 17.4665 26.8902 17.4665H11.8553C10.0642 17.4665 9.56019 14.926 11.2065 14.196L18.3995 11.0065ZM19.6972 12.5728C19.49 12.481 19.2555 12.481 19.0484 12.5728L12.2151 15.6027C12.1328 15.6392 12.1588 15.7623 12.2489 15.7623H26.4967C26.5868 15.7623 26.6128 15.6392 26.5304 15.6027L19.6972 12.5728Z" fill="#00AA12"/>
<path d="M11.0394 28.2996C11.0394 27.8394 11.4125 27.4663 11.8728 27.4663H26.8728C27.333 27.4663 27.7061 27.8394 27.7061 28.2996C27.7061 28.7599 27.333 29.133 26.8728 29.133H11.8728C11.4125 29.133 11.0394 28.7599 11.0394 28.2996Z" fill="#00AA12"/>
<path d="M18.5395 25.7998C18.5395 26.2601 18.9126 26.6331 19.3728 26.6331C19.8331 26.6331 20.2062 26.2601 20.2062 25.7998V19.1331C20.2062 18.6729 19.8331 18.2998 19.3728 18.2998C18.9126 18.2998 18.5395 18.6729 18.5395 19.1331V25.7998Z" fill="#00AA12"/>
<path d="M14.3728 26.6331C13.9126 26.6331 13.5395 26.2601 13.5395 25.7998V19.1331C13.5395 18.6729 13.9126 18.2998 14.3728 18.2998C14.8331 18.2998 15.2062 18.6729 15.2062 19.1331V25.7998C15.2062 26.2601 14.8331 26.6331 14.3728 26.6331Z" fill="#00AA12"/>
<path d="M23.5395 25.7998C23.5395 26.2601 23.9126 26.6331 24.3728 26.6331C24.8331 26.6331 25.2062 26.2601 25.2062 25.7998V19.1331C25.2062 18.6729 24.8331 18.2998 24.3728 18.2998C23.9126 18.2998 23.5395 18.6729 23.5395 19.1331V25.7998Z" fill="#00AA12"/>
</g>
<defs>
<clipPath id="clip0_50_4527">
<rect width="20" height="20" fill="white" transform="translate(9.3728 9.96631)"/>
</clipPath>
</defs>
</svg>
