<svg width="39" height="39" viewBox="0 0 39 39" fill="none" xmlns="http://www.w3.org/2000/svg">
<circle cx="19.2952" cy="19.4002" r="19.2" fill="#E5F6E7" fill-opacity="0.56"/>
<path fill-rule="evenodd" clip-rule="evenodd" d="M14.9737 12.4017C14.3484 12.4017 13.8415 12.9053 13.8415 13.5266V26.1257C13.8415 26.7469 14.3484 27.2506 14.9737 27.2506H24.0311C24.6564 27.2506 25.1633 26.7469 25.1633 26.1257V17.3171C25.1633 17.0242 25.0483 16.7429 24.8428 16.5329L21.1339 12.7424C20.9207 12.5246 20.6279 12.4017 20.3221 12.4017H14.9737ZM12.4829 13.5266C12.4829 12.1598 13.5981 11.0518 14.9737 11.0518H20.3221C20.9949 11.0518 21.6391 11.3222 22.108 11.8014L25.817 15.5919C26.269 16.0539 26.5219 16.6728 26.5219 17.3171V26.1257C26.5219 27.4925 25.4068 28.6005 24.0311 28.6005H14.9737C13.5981 28.6005 12.4829 27.4925 12.4829 26.1257V13.5266Z" fill="#00AA12"/>
<path fill-rule="evenodd" clip-rule="evenodd" d="M16.1058 22.526C16.1058 22.8988 16.41 23.201 16.7851 23.201H22.2196C22.5947 23.201 22.8989 22.8988 22.8989 22.526C22.8989 22.1533 22.5947 21.8511 22.2196 21.8511H16.7851C16.41 21.8511 16.1058 22.1533 16.1058 22.526Z" fill="#69E476"/>
<path fill-rule="evenodd" clip-rule="evenodd" d="M16.1058 18.9265C16.1058 19.2992 16.41 19.6014 16.7851 19.6014H19.5024C19.8776 19.6014 20.1817 19.2992 20.1817 18.9265C20.1817 18.5537 19.8776 18.2515 19.5024 18.2515H16.7851C16.41 18.2515 16.1058 18.5537 16.1058 18.9265Z" fill="#69E476"/>
</svg>
