<svg width="18" height="18" viewBox="0 0 18 18" fill="none" xmlns="http://www.w3.org/2000/svg">
<g clip-path="url(#clip0_254_4164)">
<path d="M9.00024 10.875C10.0358 10.875 10.8752 10.0355 10.8752 9C10.8752 7.96447 10.0358 7.125 9.00024 7.125C7.96472 7.125 7.12524 7.96447 7.12524 9C7.12524 10.0355 7.96472 10.875 9.00024 10.875Z" stroke="white" stroke-width="1.25" stroke-miterlimit="10" stroke-linecap="round" stroke-linejoin="round"/>
<path d="M13.8752 7.125V10.875" stroke="white" stroke-width="1.25" stroke-miterlimit="10" stroke-linecap="round" stroke-linejoin="round"/>
<path d="M6.75024 13.5C6.75024 14.0625 6.59275 14.595 6.31525 15.045C5.79775 15.915 4.84524 16.5 3.75024 16.5C2.65524 16.5 1.70274 15.915 1.18524 15.045C0.907737 14.595 0.750244 14.0625 0.750244 13.5C0.750244 11.8425 2.09274 10.5 3.75024 10.5C5.40774 10.5 6.75024 11.8425 6.75024 13.5Z" stroke="white" stroke-width="1.25" stroke-miterlimit="10" stroke-linecap="round" stroke-linejoin="round"/>
<path d="M2.5813 13.4996L3.32379 14.2421L4.92129 12.7646" stroke="white" stroke-width="1.25" stroke-linecap="round" stroke-linejoin="round"/>
<path d="M1.50024 11.475V6.75C1.50024 4.125 3.00024 3 5.25024 3H12.7502C15.0002 3 16.5002 4.125 16.5002 6.75V11.25C16.5002 13.875 15.0002 15 12.7502 15H6.37524" stroke="white" stroke-width="1.25" stroke-miterlimit="10" stroke-linecap="round" stroke-linejoin="round"/>
</g>
<defs>
<clipPath id="clip0_254_4164">
<rect width="18" height="18" fill="white" transform="translate(0.000244141)"/>
</clipPath>
</defs>
</svg>
