<svg width="46" height="45" viewBox="0 0 46 45" fill="none" xmlns="http://www.w3.org/2000/svg">
<path d="M23.0002 44.4928C35.3125 44.4928 45.2934 34.5327 45.2934 22.2464C45.2934 9.96002 35.3125 0 23.0002 0C10.688 0 0.707031 9.96002 0.707031 22.2464C0.707031 34.5327 10.688 44.4928 23.0002 44.4928Z" fill="white"/>
<path d="M26.75 14.9337H15.5C12.7375 14.9337 10.5 17.1712 10.5 19.9336V15.4211C10.5 12.8711 12.5625 10.8086 15.1125 10.8086H22.1375C24.6875 10.8086 26.75 12.3837 26.75 14.9337Z" fill="#00AA12"/>
<path opacity="0.4" d="M29.85 22.4961C29.225 23.1086 28.925 24.0336 29.175 24.9711C29.4875 26.1336 30.6375 26.8711 31.8375 26.8711H33V28.6836C33 31.4461 30.7625 33.6836 28 33.6836H15.5C12.7375 33.6836 10.5 31.4461 10.5 28.6836V19.9336C10.5 17.1711 12.7375 14.9336 15.5 14.9336H28C30.75 14.9336 33 17.1836 33 19.9336V21.7461H31.65C30.95 21.7461 30.3125 22.0211 29.85 22.4961Z" fill="#00AA12"/>
<path d="M35.5003 23.0211V25.5961C35.5003 26.2961 34.9253 26.8711 34.2128 26.8711H31.8003C30.4503 26.8711 29.2128 25.8836 29.1003 24.5336C29.0253 23.7461 29.3253 23.0086 29.8503 22.4961C30.3128 22.0211 30.9503 21.7461 31.6503 21.7461H34.2128C34.9253 21.7461 35.5003 22.3211 35.5003 23.0211Z" fill="#00AA12"/>
<path d="M24.25 22.1211H16.75C16.2375 22.1211 15.8125 21.6961 15.8125 21.1836C15.8125 20.6711 16.2375 20.2461 16.75 20.2461H24.25C24.7625 20.2461 25.1875 20.6711 25.1875 21.1836C25.1875 21.6961 24.7625 22.1211 24.25 22.1211Z" fill="#00AA12"/>
</svg>
