<svg width="39" height="39" viewBox="0 0 39 39" fill="none" xmlns="http://www.w3.org/2000/svg">
<circle cx="19.2" cy="19.6004" r="19.2" fill="#E5F6E7" fill-opacity="0.56"/>
<path d="M23.3336 16.4497L14.8284 24.9789C14.6368 25.1706 14.409 25.2664 14.1451 25.2664C13.8819 25.2664 13.6545 25.1706 13.4628 24.9789C13.2711 24.7872 13.1753 24.5595 13.1753 24.2956C13.1753 24.0324 13.2711 23.8049 13.4628 23.6133L21.992 15.1081H14.7086C14.4371 15.1081 14.2093 15.0164 14.0253 14.833C13.842 14.649 13.7503 14.4213 13.7503 14.1497C13.7503 13.8782 13.842 13.6504 14.0253 13.4664C14.2093 13.2831 14.4371 13.1914 14.7086 13.1914H24.292C24.5635 13.1914 24.7909 13.2831 24.9743 13.4664C25.1583 13.6504 25.2503 13.8782 25.2503 14.1497V23.7331C25.2503 24.0046 25.1583 24.232 24.9743 24.4154C24.7909 24.5994 24.5635 24.6914 24.292 24.6914C24.0204 24.6914 23.793 24.5994 23.6096 24.4154C23.4256 24.232 23.3336 24.0046 23.3336 23.7331V16.4497Z" fill="#00AA12"/>
</svg>
