<svg width="39" height="39" viewBox="0 0 39 39" fill="none" xmlns="http://www.w3.org/2000/svg">
<circle cx="19.2" cy="19.7996" r="19.2" fill="#E5F6E7" fill-opacity="0.56"/>
<path d="M15.6664 23.1489L24.1716 14.6197C24.3633 14.4281 24.591 14.3322 24.8549 14.3322C25.1181 14.3322 25.3455 14.4281 25.5372 14.6197C25.7289 14.8114 25.8247 15.0392 25.8247 15.303C25.8247 15.5663 25.7289 15.7937 25.5372 15.9854L17.0081 24.4906H24.2914C24.5629 24.4906 24.7907 24.5822 24.9747 24.7656C25.158 24.9496 25.2497 25.1774 25.2497 25.4489C25.2497 25.7204 25.158 25.9482 24.9747 26.1322C24.7907 26.3155 24.5629 26.4072 24.2914 26.4072H14.7081C14.4365 26.4072 14.2091 26.3155 14.0257 26.1322C13.8417 25.9482 13.7497 25.7204 13.7497 25.4489V15.8656C13.7497 15.5941 13.8417 15.3666 14.0257 15.1832C14.2091 14.9992 14.4365 14.9072 14.7081 14.9072C14.9796 14.9072 15.207 14.9992 15.3904 15.1832C15.5744 15.3666 15.6664 15.5941 15.6664 15.8656V23.1489Z" fill="#00AA12"/>
</svg>
