<svg width="39" height="39" viewBox="0 0 39 39" fill="none" xmlns="http://www.w3.org/2000/svg">
<circle cx="19.2" cy="19.2" r="19.2" fill="#E5F6E7" fill-opacity="0.56"/>
<path d="M27.75 19C27.75 18.5858 27.4142 18.25 27 18.25C26.5858 18.25 26.25 18.5858 26.25 19C26.25 23.0041 23.0041 26.25 19 26.25C14.9959 26.25 11.75 23.0041 11.75 19C11.75 18.5858 11.4142 18.25 11 18.25C10.5858 18.25 10.25 18.5858 10.25 19C10.25 23.8325 14.1675 27.75 19 27.75C23.8325 27.75 27.75 23.8325 27.75 19Z" fill="#00AA12"/>
<path d="M21.4697 17.4697C21.7626 17.1768 22.2374 17.1768 22.5303 17.4697C22.8232 17.7626 22.8232 18.2374 22.5303 18.5303L19.5303 21.5303C19.2374 21.8232 18.7626 21.8232 18.4697 21.5303L15.4697 18.5303C15.1768 18.2374 15.1768 17.7626 15.4697 17.4697C15.7626 17.1768 16.2374 17.1768 16.5303 17.4697L18.25 19.1893L18.25 11C18.25 10.5858 18.5858 10.25 19 10.25C19.4142 10.25 19.75 10.5858 19.75 11L19.75 19.1893L21.4697 17.4697Z" fill="#00AA12"/>
</svg>
